<svg width="130" height="23" viewBox="0 0 130 23" fill="none" xmlns="http://www.w3.org/2000/svg">
<g clip-path="url(#clip0_1961_10787)">
<path fill-rule="evenodd" clip-rule="evenodd" d="M5.75361 3.20926C5.41008 3.77379 5.16189 4.37225 5.00597 4.98834C3.24027 5.52607 1.72031 6.68932 0.853724 8.19447C-0.919285 11.2802 0.159036 15.28 3.25732 17.1117C3.70039 17.3769 4.17026 17.5909 4.65765 17.7512C5.5094 19.924 7.28918 21.7601 9.31582 22.5512C10.0516 22.8441 10.8373 22.9963 11.6308 22.9999C12.5653 22.9985 13.4869 22.7845 14.3238 22.3747C16.1213 21.5077 17.4599 19.8562 17.9714 17.9025C19.804 17.3876 21.3877 16.1999 22.2822 14.6514C24.0552 11.5648 22.9779 7.565 19.8796 5.73417C19.2971 5.38989 18.6884 5.13698 18.0678 4.97304C17.5288 3.21402 16.3433 1.70048 14.8025 0.841541C11.6702 -0.905684 7.61145 0.156026 5.75361 3.20926ZM18.1514 15.9798C19.2495 15.5234 20.1725 14.7462 20.726 13.7829C22.0268 11.5192 21.2331 8.58119 18.9577 7.23896C17.1689 6.18439 15.1121 6.26313 13.3992 7.37528C13.1599 8.12827 12.4464 8.67464 11.6034 8.67464C10.5643 8.67464 9.72199 7.84456 9.72199 6.8206C9.72199 5.79663 10.5643 4.96655 11.6034 4.96655C12.1569 4.96655 12.6547 5.20213 12.9989 5.5771C13.9718 5.06413 15.0215 4.78417 16.0801 4.74851C15.6095 3.73746 14.8514 2.89069 13.923 2.37327C11.6259 1.09141 8.64453 1.8726 7.28249 4.11585C6.00583 6.21371 6.63738 8.54259 7.90425 10.1595C7.94261 10.1883 7.97982 10.2186 8.01579 10.2501C10.1271 9.34524 12.7921 9.35835 14.7791 10.3867C15.1144 9.87745 15.6965 9.54059 16.3584 9.54059C17.3975 9.54059 18.2399 10.3707 18.2399 11.3946C18.2399 12.0693 17.8741 12.6599 17.3274 12.9842C17.45 13.2233 17.5573 13.4707 17.6483 13.725C17.9322 14.4854 18.1017 15.2531 18.1514 15.9798ZM8.62459 11.9175C8.48657 12.8074 7.70651 13.4891 6.76488 13.4891C5.72581 13.4891 4.88347 12.659 4.88347 11.635C4.88347 10.9899 5.21781 10.4218 5.72504 10.0897C5.17643 9.08923 4.86799 8.01198 4.81474 6.93696C3.79091 7.40113 2.93308 8.14722 2.40805 9.06019C1.10728 11.3239 1.90094 14.2619 4.17635 15.6042C5.98611 16.6735 8.07302 16.5778 9.7991 15.4263C10.0846 14.7607 10.7534 14.2936 11.5328 14.2936C12.5718 14.2936 13.4142 15.1237 13.4142 16.1477C13.4142 17.1716 12.5718 18.0017 11.5328 18.0017C10.9389 18.0017 10.4093 17.7306 10.0645 17.3071C9.04072 17.8317 7.93526 18.1005 6.82502 18.101C6.81623 18.101 6.80744 18.1009 6.79865 18.1009C7.55258 19.3864 8.70204 20.4221 9.97751 20.9183C10.5458 21.1497 11.1579 21.2582 11.7723 21.2366C12.3868 21.2149 12.9895 21.0636 13.5396 20.7929C14.9478 20.1138 16.0129 18.7112 16.3202 17.1331C16.4748 16.3361 16.3522 15.3394 15.9752 14.3269C15.7059 13.5643 15.2343 12.8866 14.6094 12.3642C13.1394 11.1838 10.5114 11.0849 8.62459 11.9175Z" fill="white"/>
<path fill-rule="evenodd" clip-rule="evenodd" d="M31.6732 16.4232C32.5046 16.8461 33.5075 17.0576 34.682 17.0576C35.8206 17.0588 36.7987 16.8709 37.6162 16.4938C38.4338 16.1166 39.0571 15.616 39.4863 14.9918C39.9104 14.3836 40.1351 13.662 40.1301 12.9241C40.1301 12.0528 39.8926 11.3506 39.4175 10.8174C38.9484 10.2882 38.3581 9.87679 37.6954 9.61726C36.8397 9.29097 35.9676 9.00792 35.0826 8.76919C34.3172 8.57413 33.7102 8.39516 33.2615 8.2323C32.8539 8.09364 32.4775 7.87852 32.153 7.5988C32.0127 7.47731 31.901 7.32707 31.8258 7.1586C31.7506 6.99013 31.7136 6.80749 31.7175 6.62348C31.7153 6.2894 31.8228 5.96358 32.0239 5.69459C32.2615 5.39054 32.5804 5.15768 32.9448 5.02209C33.4163 4.84224 33.9192 4.75606 34.4246 4.7685C35.3214 4.76417 36.0305 4.94096 36.5521 5.29889C37.0736 5.65682 37.407 6.09587 37.5521 6.61604H39.9689C39.8249 5.90371 39.5241 5.23119 39.0876 4.64589C38.6452 4.04769 38.0316 3.56003 37.2467 3.1829C36.4619 2.80578 35.5218 2.61721 34.4265 2.61721C33.3972 2.61474 32.4933 2.7968 31.7147 3.16339C30.9361 3.52999 30.3391 4.0254 29.9238 4.6496C29.5177 5.24325 29.3008 5.94285 29.3007 6.65877C29.3007 7.52944 29.5383 8.22827 30.0133 8.75526C30.48 9.27604 31.0626 9.6833 31.7156 9.94515C32.5686 10.2739 33.4412 10.551 34.3285 10.7746C35.0939 10.984 35.7009 11.1697 36.1496 11.332C36.5585 11.4736 36.9368 11.6898 37.2647 11.9692C37.4084 12.092 37.5228 12.2447 37.5997 12.4162C37.6766 12.5877 37.7141 12.7738 37.7096 12.9612C37.7151 13.3206 37.6042 13.6724 37.3928 13.9654C37.1811 14.2583 36.8477 14.4892 36.3928 14.6583C35.9378 14.8274 35.3672 14.9119 34.681 14.9119C33.6913 14.9119 32.8961 14.6843 32.2953 14.2292C31.7275 13.8201 31.3135 13.2369 31.118 12.5711H28.7031C28.8754 13.3654 29.2127 14.1159 29.6938 14.7753C30.2089 15.474 30.8881 16.0394 31.6732 16.4232ZM43.2209 15.7991C43.9272 16.5341 44.894 16.9016 46.1212 16.9016C46.8086 16.9188 47.4883 16.7553 48.0903 16.4279C48.6117 16.1465 49.0519 15.7389 49.3694 15.2436H49.4288V16.6676H51.6062V6.81678H49.4269V12.0835C49.4365 12.6148 49.3142 13.1403 49.0706 13.6143C48.8508 14.0442 48.5106 14.403 48.0903 14.6482C47.6671 14.891 47.1849 15.0158 46.6953 15.0095C45.9689 15.0095 45.3914 14.7949 44.9628 14.3658C44.5342 13.9367 44.32 13.3059 44.32 12.4737V6.81678H42.1624V12.7124C42.1617 14.0351 42.5146 15.064 43.2209 15.7991ZM54.0805 20.3737V6.81668H56.2381V8.24066H56.2975C56.4667 8.00036 56.6659 7.78192 56.8903 7.59044C57.6494 6.91702 58.6415 6.55599 59.6625 6.58168C60.4947 6.57355 61.312 6.79908 62.019 7.23189C62.7436 7.68087 63.3318 8.31438 63.7213 9.0655C64.153 9.89476 64.3703 10.8162 64.3538 11.7481C64.3687 12.6733 64.1515 13.5878 63.7213 14.4103C63.3318 15.1614 62.7436 15.7949 62.019 16.2439C61.312 16.6767 60.4947 16.9022 59.6625 16.8941C58.6418 16.9232 57.6486 16.5663 56.8866 15.8965C56.6622 15.705 56.463 15.4866 56.2937 15.2463H56.2343V20.3765L54.0805 20.3737ZM59.2072 15.0094C59.7335 15.0168 60.2512 14.878 60.7012 14.6091C61.1523 14.333 61.5157 13.9378 61.7503 13.4684C62.0169 12.935 62.1495 12.3463 62.1368 11.7518C62.1504 11.1519 62.0178 10.5576 61.7503 10.0185C61.5158 9.54886 61.1523 9.15337 60.7012 8.87694C60.2511 8.60825 59.7334 8.46983 59.2072 8.47752C58.6747 8.47156 58.1508 8.60972 57.6925 8.87694C57.2325 9.14865 56.8615 9.54491 56.6236 10.0185C56.3559 10.5585 56.2237 11.1539 56.2381 11.7546C56.2251 12.349 56.3573 12.9377 56.6236 13.4712C56.8615 13.9446 57.2326 14.3405 57.6925 14.6119C58.151 14.8784 58.6749 15.0159 59.2072 15.0094ZM66.294 6.81665V20.3737L68.4506 20.3727V15.2425H68.51C68.68 15.4826 68.8794 15.701 69.1038 15.8927C69.8635 16.5641 70.855 16.9237 71.875 16.8978C72.7073 16.906 73.5246 16.6805 74.2315 16.2476C74.9569 15.7978 75.5451 15.1629 75.9338 14.4102C76.3648 13.588 76.5824 12.6734 76.5673 11.7481C76.5673 10.7461 76.3561 9.85192 75.9338 9.06547C75.5446 8.31416 74.9564 7.68058 74.2315 7.23186C73.5247 6.7989 72.7073 6.57336 71.875 6.58164C70.8547 6.55633 69.8633 6.91734 69.1048 7.5904C68.8804 7.78218 68.6809 8.00057 68.5109 8.24062H68.4516V6.81665H66.294ZM72.9119 14.609C72.4626 14.8773 71.946 15.016 71.4207 15.0094C70.8887 15.0159 70.3651 14.8784 69.9069 14.6118C69.447 14.3405 69.076 13.9445 68.838 13.4711C68.5715 12.9378 68.4389 12.349 68.4516 11.7546C68.4375 11.1537 68.5701 10.5584 68.838 10.0185C69.0745 9.54435 69.4442 9.14713 69.9032 8.87412C70.3611 8.60693 70.8848 8.46876 71.417 8.4747C71.9434 8.46704 72.4615 8.60545 72.9119 8.87412C73.3648 9.15077 73.7296 9.54731 73.9648 10.0185C74.2307 10.5579 74.3616 11.1523 74.3465 11.7518C74.3595 12.3462 74.2272 12.9349 73.961 13.4684C73.7264 13.9378 73.363 14.333 72.9119 14.609ZM83.2353 16.9015C82.2839 16.9143 81.3456 16.6822 80.5132 16.2281C79.7167 15.794 79.0562 15.1531 78.6035 14.375C78.1386 13.5774 77.8994 12.6715 77.9107 11.7518C77.9005 10.829 78.1396 9.92012 78.6035 9.11843C79.0539 8.336 79.7147 7.69123 80.5132 7.2551C81.3544 6.8129 82.2932 6.5816 83.2467 6.5816C84.2001 6.5816 85.1389 6.8129 85.9802 7.2551C86.779 7.69094 87.4402 8.33576 87.8908 9.11843C88.3547 9.92012 88.5938 10.829 88.5836 11.7518C88.5949 12.6715 88.3556 13.5774 87.8908 14.375C87.4379 15.1533 86.7771 15.7943 85.9802 16.2281C85.1404 16.6843 84.1942 16.9165 83.2353 16.9015ZM83.2353 15.0094C83.7972 15.0174 84.3507 14.8759 84.8377 14.5998C85.3124 14.3269 85.6998 13.9281 85.9557 13.4489C86.2335 12.9257 86.3732 12.3421 86.3619 11.7518C86.3746 11.1551 86.2349 10.5648 85.9557 10.0352C85.6998 9.55599 85.3124 9.15722 84.8377 8.88436C84.3507 8.60824 83.7972 8.46672 83.2353 8.47472C82.6797 8.46823 82.1326 8.60976 81.6518 8.88436C81.1768 9.15716 80.7892 9.55593 80.5329 10.0352C80.254 10.5649 80.1146 11.1552 80.1276 11.7518C80.1161 12.3421 80.2555 12.9257 80.5329 13.4489C80.7892 13.9282 81.1768 14.327 81.6518 14.5998C82.1326 14.8744 82.6797 15.0159 83.2353 15.0094ZM90.4802 6.82112V16.6673L92.6378 16.67V11.4033C92.6275 10.9226 92.7469 10.4479 92.9837 10.0276C93.209 9.63527 93.5419 9.31336 93.9442 9.09873C94.383 8.87078 94.8735 8.75666 95.3694 8.76712H96.6956V6.67993H95.5079C94.8217 6.67931 94.2376 6.83846 93.7557 7.15737C93.2989 7.44896 92.9326 7.8591 92.6971 8.34262H92.6378V6.82112H90.4802ZM98.6762 16.6673V8.70868H97.3896V6.81655H98.6762V4.67083H100.854V6.81655H103.862V8.70868H100.854V14.7752H103.964V16.6673H98.6762ZM105.763 3.01291V16.6675H110.197V14.7753H107.921V3.01291H105.763ZM114.452 20.3736L115.601 16.6673H113.364L110.692 6.8212H112.971L115.044 14.7798H116.175L118.571 6.8212H120.827L116.73 20.3829L114.452 20.3736ZM121.319 14.7754V16.6676L129.866 16.6722V14.7801H124.186V14.663L129.677 8.70891V6.81678H121.521V8.70891H126.826V8.82595L121.319 14.7754Z" fill="white"/>
</g>
<defs>
<clipPath id="clip0_1961_10787">
<rect width="129.865" height="23" fill="white"/>
</clipPath>
</defs>
</svg>
