<svg width="20" height="20" viewBox="0 0 20 20" fill="none" xmlns="http://www.w3.org/2000/svg">
<g clip-path="url(#clip0_1768_11795)">
<path d="M6.64534 10.6526C4.38635 8.58713 3.80588 5.48166 5.2344 3.10081C6.75784 0.559985 10.086 -0.324195 12.6539 1.12991C14.0713 1.93245 15.1244 3.42131 15.4711 5.11292L14.0385 5.40588C13.7756 4.12268 12.9883 2.99963 11.9336 2.40237C10.05 1.33557 7.60725 1.98616 6.48772 3.85276C5.24397 5.92698 6.20901 8.2721 7.63225 9.57346L6.64534 10.6526Z" fill="#2AC870"/>
<path d="M14.7992 15.4385L14.5063 14.0061C15.7896 13.7432 16.9123 12.9562 17.5102 11.9012C18.5766 10.0176 17.926 7.57461 16.0596 6.45527C14.2283 5.35722 12.049 5.73613 10.509 7.42187L9.42969 6.43535C11.4287 4.24882 14.3953 3.75273 16.8125 5.20195C19.3533 6.72539 20.2375 10.0543 18.7834 12.6223C17.9799 14.0391 16.4908 15.0922 14.7992 15.4385Z" fill="#2AC870"/>
<path d="M10.0275 7.64901C10.8798 7.64901 11.5707 6.95811 11.5707 6.10585C11.5707 5.25358 10.8798 4.56268 10.0275 4.56268C9.17527 4.56268 8.48438 5.25358 8.48438 6.10585C8.48438 6.95811 9.17527 7.64901 10.0275 7.64901Z" fill="#2AC870"/>
<path d="M9.97285 15.4112C10.8251 15.4112 11.516 14.7203 11.516 13.868C11.516 13.0157 10.8251 12.3248 9.97285 12.3248C9.12059 12.3248 8.42969 13.0157 8.42969 13.868C8.42969 14.7203 9.12059 15.4112 9.97285 15.4112Z" fill="#2AC870"/>
<path d="M6.0627 11.656C6.91496 11.656 7.60586 10.9651 7.60586 10.1129C7.60586 9.2606 6.91496 8.5697 6.0627 8.5697C5.21043 8.5697 4.51953 9.2606 4.51953 10.1129C4.51953 10.9651 5.21043 11.656 6.0627 11.656Z" fill="#2AC870"/>
<path d="M13.9299 11.4558C14.7821 11.4558 15.473 10.7649 15.473 9.91267C15.473 9.06041 14.7821 8.36951 13.9299 8.36951C13.0776 8.36951 12.3867 9.06041 12.3867 9.91267C12.3867 10.7649 13.0776 11.4558 13.9299 11.4558Z" fill="#2AC870"/>
<path d="M6.11329 15.4932C5.11387 15.4932 4.11075 15.2237 3.18731 14.67C0.645902 13.1462 -0.238278 9.81744 1.21582 7.24967C2.01836 5.83229 3.50743 4.77916 5.19883 4.43365L5.4918 5.86608C4.20879 6.12819 3.08594 6.9151 2.48828 7.97018C1.42168 9.85377 2.07246 12.2967 3.93868 13.4159C5.77032 14.5141 7.94903 14.135 9.48946 12.4499L10.5686 13.4376C9.3334 14.7876 7.72852 15.4932 6.11329 15.4932Z" fill="#2AC870"/>
<path d="M10.051 19.5703C9.41816 19.5703 8.78047 19.4461 8.15215 19.1971C6.47422 18.5319 5.00293 16.9809 4.3125 15.1494L5.68066 14.6336C6.23027 16.0918 7.38398 17.3196 8.69121 17.8367C9.67051 18.2264 10.6818 18.1905 11.6129 17.7344C12.7674 17.168 13.641 16.0018 13.8928 14.6875C14.0199 14.0246 13.9193 13.1953 13.6098 12.3528C13.3623 11.6789 12.9752 11.1143 12.4902 10.7194C10.9121 9.43343 7.70781 9.68909 6.36816 11.2076C6.35664 11.2205 6.34512 11.2346 6.3334 11.2489L5.20293 10.3213C5.2252 10.2941 5.24785 10.2673 5.2709 10.241C7.15996 8.10081 11.1926 7.77698 13.4137 9.58616C14.1018 10.1465 14.6441 10.9291 14.9824 11.8489C15.3822 12.9371 15.5061 14.043 15.3287 14.9633C14.9871 16.7455 13.8385 18.2723 12.2561 19.0471C11.5445 19.3957 10.8012 19.5703 10.051 19.5703Z" fill="#2AC870"/>
</g>
<defs>
<clipPath id="clip0_1768_11795">
<rect width="20" height="20" fill="white"/>
</clipPath>
</defs>
</svg>
