<svg width="215" height="39" viewBox="0 0 215 39" fill="none" xmlns="http://www.w3.org/2000/svg">
<path fill-rule="evenodd" clip-rule="evenodd" d="M9.56259 5.38596C8.99156 6.33348 8.57904 7.33794 8.31989 8.37198C5.38533 9.27447 2.85921 11.2266 1.41895 13.7526C-1.52792 18.9312 0.264329 25.6439 5.4139 28.718C6.15063 29.1633 6.93198 29.5226 7.74244 29.7915C9.15815 33.4379 12.1162 36.5193 15.4845 37.847C16.7075 38.3384 18.0133 38.5939 19.3322 38.5999C20.8854 38.5975 22.4171 38.2385 23.8081 37.5508C26.7957 36.0956 29.0206 33.3239 29.8708 30.045C32.9171 29.181 35.5498 27.1875 37.0368 24.5885C39.9837 19.4083 38.193 12.6956 33.0434 9.62303C32.0744 9.04471 31.0618 8.61999 30.0293 8.34488C29.1333 5.39329 27.1631 2.85365 24.6024 1.41232C19.3964 -1.51997 12.6504 0.261853 9.56259 5.38596ZM30.1699 26.8184C31.9955 26.0525 33.53 24.7479 34.4503 23.1309C36.6122 19.3319 35.2931 14.4011 31.5112 12.1485C28.5361 10.3775 25.1152 10.5109 22.267 12.3809C21.8684 13.643 20.6833 14.5585 19.2833 14.5585C17.5563 14.5585 16.1562 13.1654 16.1562 11.447C16.1562 9.72848 17.5563 8.33539 19.2833 8.33539C20.2039 8.33539 21.0316 8.73126 21.6038 9.36127C23.2209 8.49963 24.9659 8.02921 26.7257 7.96893C25.9436 6.27225 24.6837 4.85127 23.1407 3.98295C19.3228 1.83167 14.3675 3.1427 12.1037 6.90745C9.98305 10.4261 11.0302 14.332 13.1334 17.0455C13.1993 17.0952 13.2632 17.1474 13.3249 17.2021C16.8326 15.6844 21.2597 15.7061 24.5615 17.43C25.119 16.5761 26.0861 16.0114 27.1856 16.0114C28.9126 16.0114 30.3126 17.4045 30.3126 19.123C30.3126 20.254 29.7062 21.2441 28.7992 21.7888C29.0034 22.1908 29.1821 22.6067 29.3337 23.0343C29.8055 24.3105 30.0872 25.5988 30.1699 26.8184ZM14.3374 20C14.1083 21.4939 12.8116 22.6383 11.2463 22.6383C9.51926 22.6383 8.11924 21.2452 8.11924 19.5268C8.11924 18.445 8.67403 17.4922 9.51593 16.9346C8.60363 15.2553 8.09071 13.4469 8.00212 11.6423C6.30058 12.4213 4.87493 13.6734 4.00235 15.2055C1.84038 19.0045 3.15949 23.9353 6.94138 26.1879C9.94719 27.9812 13.413 27.8222 16.2806 25.8935C16.7542 24.7742 17.8668 23.9883 19.1639 23.9883C20.8909 23.9883 22.291 25.3814 22.291 27.0999C22.291 28.8184 20.8909 30.2115 19.1639 30.2115C18.1777 30.2115 17.2981 29.7572 16.725 29.0474C15.0242 29.9268 13.1879 30.3774 11.3437 30.3783C11.3294 30.3782 11.3151 30.3781 11.3008 30.3781C12.5539 32.5355 14.4644 34.2738 16.5843 35.1064C17.5288 35.4948 18.5461 35.6769 19.5674 35.6406C20.5888 35.6043 21.5904 35.3504 22.5047 34.896C24.8452 33.7564 26.6155 31.4025 27.1263 28.7539C27.3832 27.4164 27.1795 25.7437 26.5529 24.0445C26.1052 22.7645 25.3214 21.6272 24.2828 20.7505C21.84 18.7699 17.4732 18.6036 14.3374 20Z" fill="#22D369"/>
<path fill-rule="evenodd" clip-rule="evenodd" d="M51.7959 27.5621C53.1777 28.2719 54.8446 28.6268 56.7966 28.6268C58.6891 28.6289 60.3148 28.3135 61.6736 27.6806C63.0324 27.0476 64.0685 26.2074 64.7818 25.1598C65.4866 24.1392 65.8601 22.9281 65.8518 21.6897C65.8518 20.2275 65.457 19.0489 64.6674 18.1541C63.8877 17.266 62.9065 16.5756 61.8052 16.14C60.3829 15.5924 58.9334 15.1174 57.4624 14.7167C56.1903 14.3894 55.1814 14.089 54.4357 13.8157C53.7583 13.583 53.1327 13.222 52.5933 12.7525C52.3601 12.5486 52.1745 12.2965 52.0495 12.0137C51.9245 11.731 51.863 11.4245 51.8695 11.1157C51.8659 10.555 52.0445 10.0082 52.3787 9.55677C52.7737 9.04649 53.3037 8.65569 53.9093 8.42813C54.6929 8.1263 55.5289 7.98167 56.3689 8.00255C57.8593 7.99527 59.038 8.29198 59.9048 8.89268C60.7717 9.49338 61.3258 10.2302 61.5671 11.1032H65.5839C65.3446 9.90772 64.8445 8.77905 64.1191 7.79677C63.3838 6.79284 62.364 5.97442 61.0595 5.3415C59.755 4.70859 58.1925 4.39213 56.3721 4.39213C54.6613 4.38797 53.1589 4.69352 51.8648 5.30877C50.5708 5.92401 49.5786 6.75543 48.8882 7.80301C48.2133 8.79929 47.8527 9.97341 47.8526 11.1749C47.8526 12.6361 48.2474 13.8089 49.037 14.6934C49.8126 15.5674 50.781 16.2508 51.8664 16.6903C53.2841 17.2421 54.7343 17.707 56.2091 18.0824C57.4812 18.4337 58.4902 18.7455 59.2359 19.0177C59.9156 19.2555 60.5443 19.6182 61.0892 20.0872C61.3281 20.2933 61.5183 20.5495 61.6461 20.8373C61.774 21.1251 61.8363 21.4375 61.8287 21.7521C61.8379 22.3552 61.6535 22.9456 61.3023 23.4372C60.9503 23.9288 60.3962 24.3165 59.6401 24.6002C58.8839 24.8839 57.9356 25.0257 56.7951 25.0257C55.1501 25.0257 53.8283 24.6438 52.8299 23.88C51.8862 23.1934 51.198 22.2148 50.8731 21.0973H46.8594C47.1457 22.4303 47.7063 23.6899 48.5059 24.7966C49.3621 25.9692 50.491 26.918 51.7959 27.5621ZM70.9918 26.5145C72.1657 27.7481 73.7726 28.3649 75.8123 28.3649C76.9548 28.3937 78.0844 28.1193 79.0851 27.5699C79.9517 27.0976 80.6833 26.4136 81.211 25.5823H81.3097V27.9721H84.9287V11.4399H81.3066V20.2789C81.3226 21.1705 81.1193 22.0525 80.7144 22.848C80.3491 23.5694 79.7837 24.1715 79.0851 24.583C78.3817 24.9905 77.5802 25.2001 76.7664 25.1895C75.5591 25.1895 74.5992 24.8293 73.8869 24.1091C73.1746 23.3889 72.8185 22.3304 72.8185 20.9336V11.4399H69.2324V21.3343C69.2314 23.5542 69.8178 25.2809 70.9918 26.5145ZM89.0371 34.1921V11.4399H92.6232V13.8297H92.7219C93.0032 13.4264 93.3343 13.0598 93.7073 12.7385C94.9688 11.6083 96.6178 11.0024 98.3148 11.0455C99.698 11.0319 101.056 11.4103 102.231 12.1367C103.436 12.8902 104.413 13.9534 105.061 15.214C105.778 16.6057 106.139 18.1522 106.112 19.7161C106.137 21.2688 105.776 22.8036 105.061 24.1839C104.413 25.4445 103.436 26.5077 102.231 27.2612C101.056 27.9875 99.698 28.366 98.3148 28.3524C96.6184 28.4013 94.9675 27.8022 93.701 26.6781C93.328 26.3568 92.997 25.9902 92.7156 25.5869H92.6169V34.1967L89.0371 34.1921ZM97.5581 25.1894C98.4328 25.2017 99.2933 24.9689 100.041 24.5175C100.791 24.0542 101.395 23.391 101.785 22.6032C102.228 21.708 102.448 20.72 102.427 19.7223C102.45 18.7156 102.23 17.7181 101.785 16.8134C101.395 16.0252 100.791 15.3615 100.041 14.8975C99.2932 14.4466 98.4326 14.2143 97.5581 14.2272C96.6731 14.2172 95.8022 14.4491 95.0405 14.8975C94.276 15.3535 93.6593 16.0186 93.2639 16.8134C92.819 17.7196 92.5993 18.7188 92.6232 19.727C92.6016 20.7245 92.8214 21.7126 93.2639 22.6079C93.6594 23.4023 94.2761 24.0668 95.0405 24.5222C95.8026 24.9695 96.6734 25.2003 97.5581 25.1894ZM109.334 11.4398V34.192L112.918 34.1904V25.5806H113.017C113.3 25.9835 113.631 26.35 114.004 26.6719C115.267 27.7986 116.915 28.402 118.61 28.3586C119.993 28.3724 121.352 27.9939 122.527 27.2674C123.732 26.5126 124.71 25.447 125.356 24.1838C126.072 22.8039 126.434 21.269 126.409 19.716C126.409 18.0345 126.058 16.5338 125.356 15.2139C124.709 13.953 123.731 12.8897 122.527 12.1367C121.352 11.41 119.993 11.0315 118.61 11.0454C116.914 11.003 115.266 11.6088 114.006 12.7384C113.633 13.0602 113.301 13.4268 113.019 13.8296H112.92V11.4398H109.334ZM120.333 24.5175C119.587 24.9677 118.728 25.2005 117.855 25.1893C116.971 25.2002 116.1 24.9695 115.339 24.5221C114.575 24.0668 113.958 23.4022 113.562 22.6078C113.119 21.7126 112.899 20.7246 112.92 19.7269C112.897 18.7186 113.117 17.7194 113.562 16.8134C113.955 16.0176 114.57 15.351 115.333 14.8928C116.094 14.4444 116.964 14.2125 117.849 14.2225C118.724 14.2096 119.585 14.4419 120.333 14.8928C121.086 15.3571 121.693 16.0226 122.083 16.8134C122.525 17.7186 122.743 18.7161 122.718 19.7223C122.739 20.7198 122.52 21.7078 122.077 22.6031C121.687 23.3909 121.083 24.0541 120.333 24.5175ZM137.497 28.3649C135.916 28.3864 134.356 27.9968 132.973 27.2347C131.649 26.5061 130.551 25.4305 129.799 24.1247C129.026 22.7861 128.628 21.2659 128.647 19.7224C128.63 18.1736 129.028 16.6483 129.799 15.3029C130.547 13.9898 131.646 12.9077 132.973 12.1757C134.371 11.4336 135.931 11.0454 137.516 11.0454C139.101 11.0454 140.661 11.4336 142.059 12.1757C143.387 12.9072 144.486 13.9893 145.235 15.3029C146.006 16.6483 146.403 18.1736 146.386 19.7224C146.405 21.2659 146.007 22.7861 145.235 24.1247C144.482 25.4309 143.384 26.5066 142.059 27.2347C140.663 28.0004 139.091 28.39 137.497 28.3649ZM137.497 25.1894C138.431 25.2028 139.351 24.9653 140.16 24.502C140.949 24.044 141.593 23.3748 142.018 22.5705C142.48 21.6925 142.712 20.7131 142.694 19.7224C142.715 18.7209 142.483 17.7303 142.018 16.8415C141.593 16.0372 140.949 15.368 140.16 14.91C139.351 14.4466 138.431 14.2091 137.497 14.2226C136.574 14.2117 135.664 14.4492 134.865 14.91C134.076 15.3679 133.431 16.0371 133.006 16.8415C132.542 17.7304 132.31 18.7211 132.332 19.7224C132.313 20.7129 132.544 21.6924 133.006 22.5705C133.431 23.3749 134.076 24.0441 134.865 24.502C135.664 24.9628 136.574 25.2003 137.497 25.1894ZM149.539 11.4477V27.972L153.125 27.9767V19.1378C153.108 18.3311 153.307 17.5344 153.7 16.829C154.075 16.1706 154.628 15.6303 155.297 15.2701C156.026 14.8876 156.841 14.696 157.665 14.7136H159.87V11.2107H157.896C156.755 11.2097 155.784 11.4768 154.983 12.012C154.224 12.5014 153.615 13.1897 153.224 14.0012H153.125V11.4477H149.539ZM163.158 27.972V14.6153H161.02V11.4399H163.158V7.83881H166.777V11.4399H171.778V14.6153H166.777V24.7965H171.947V27.972H163.158ZM174.938 5.05615V27.972H182.307V24.7965H178.524V5.05615H174.938ZM189.38 34.1921L191.288 27.9721H187.57L183.129 11.4477H186.917L190.364 24.8044H192.244L196.225 11.4477H199.975L193.165 34.2077L189.38 34.1921ZM200.793 24.7966V27.9721L215 27.9799V24.8044H205.559V24.608L214.685 14.6154V11.4399H201.128V14.6154H209.946V14.8118L200.793 24.7966Z" fill="#152930"/>
</svg>
