<?xml version="1.0" encoding="utf-8"?>
<!-- Generator: Adobe Illustrator 26.0.0, SVG Export Plug-In . SVG Version: 6.00 Build 0)  -->
<svg version="1.1" id="Capa_1" xmlns="http://www.w3.org/2000/svg" xmlns:xlink="http://www.w3.org/1999/xlink" x="0px" y="0px"
	 viewBox="0 0 31 31" style="enable-background:new 0 0 31 31;" xml:space="preserve">
<style type="text/css">
	.st0{fill-rule:evenodd;clip-rule:evenodd;}
</style>
<path class="st0" d="M24.5,6.2c-0.9-0.9-2.1-1.4-3.4-1.4c-1.3,0-2.5,0.5-3.4,1.4L6.5,17.3c-0.9,0.9-1.4,2.1-1.3,3.4
	c0,1.3,0.5,2.5,1.4,3.3c0.9,0.9,2.1,1.4,3.3,1.4c1.3,0,2.5-0.5,3.4-1.3h0l0.8-0.8c0.2-0.2,0.5-0.3,0.8-0.3c0.3,0,0.6,0.1,0.8,0.3
	c0.2,0.2,0.4,0.5,0.4,0.8c0,0.3-0.1,0.6-0.3,0.8L15,25.8l0,0c-1.3,1.3-3.2,2.1-5.1,2.1c-1.9,0-3.7-0.8-5.1-2.1
	c-1.3-1.3-2.1-3.2-2.1-5.1s0.8-3.7,2.1-5.1L16,4.5c1.3-1.3,3.2-2.1,5.1-2.1c1.9,0,3.7,0.8,5.1,2.1s2.1,3.2,2.1,5.1
	c0,1.9-0.8,3.7-2.1,5.1l-5.5,5.7c-0.4,0.4-0.8,0.7-1.4,1c-0.5,0.2-1.1,0.3-1.6,0.4c-0.6,0-1.1-0.1-1.6-0.3c-0.5-0.2-1-0.5-1.4-0.9
	c-0.4-0.4-0.7-0.9-0.9-1.4c-0.2-0.5-0.3-1.1-0.3-1.6c0-0.6,0.1-1.1,0.4-1.6c0.2-0.5,0.5-1,1-1.4l5.5-5.5c0.1-0.1,0.2-0.2,0.4-0.3
	c0.1-0.1,0.3-0.1,0.5-0.1c0.2,0,0.3,0,0.5,0.1c0.1,0.1,0.3,0.1,0.4,0.3c0.1,0.1,0.2,0.2,0.3,0.4c0.1,0.1,0.1,0.3,0.1,0.5
	c0,0.2,0,0.3-0.1,0.5c-0.1,0.1-0.2,0.3-0.3,0.4l-5.5,5.5c-0.2,0.2-0.3,0.4-0.4,0.6c-0.1,0.2-0.1,0.5-0.1,0.7c0,0.2,0,0.5,0.1,0.7
	c0.1,0.2,0.2,0.4,0.4,0.6c0.2,0.2,0.4,0.3,0.6,0.4c0.2,0.1,0.5,0.1,0.7,0.1c0.2,0,0.5,0,0.7-0.1c0.2-0.1,0.4-0.2,0.6-0.4l5.5-5.7
	c0.9-0.9,1.4-2.1,1.4-3.4C25.9,8.3,25.4,7.1,24.5,6.2L24.5,6.2z"/>
</svg>
