<svg width="24" height="24" viewBox="0 0 24 24" fill="none" xmlns="http://www.w3.org/2000/svg">
<g clip-path="url(#clip0_1649_21636)">
<path d="M4.99959 11H16.1696L11.2896 6.12004C10.8996 5.73004 10.8996 5.09004 11.2896 4.70004C11.3821 4.60733 11.492 4.53379 11.613 4.4836C11.7339 4.43342 11.8636 4.40759 11.9946 4.40759C12.1256 4.40759 12.2552 4.43342 12.3762 4.4836C12.4972 4.53379 12.6071 4.60733 12.6996 4.70004L19.2896 11.29C19.3823 11.3826 19.4558 11.4924 19.506 11.6134C19.5562 11.7344 19.582 11.8641 19.582 11.995C19.582 12.126 19.5562 12.2557 19.506 12.3767C19.4558 12.4976 19.3823 12.6075 19.2896 12.7L12.6996 19.29C12.607 19.3826 12.4971 19.4561 12.3761 19.5062C12.2552 19.5563 12.1255 19.5821 11.9946 19.5821C11.8637 19.5821 11.734 19.5563 11.613 19.5062C11.4921 19.4561 11.3822 19.3826 11.2896 19.29C11.197 19.1975 11.1236 19.0875 11.0735 18.9666C11.0234 18.8456 10.9976 18.716 10.9976 18.585C10.9976 18.4541 11.0234 18.3245 11.0735 18.2035C11.1236 18.0825 11.197 17.9726 11.2896 17.88L16.1696 13H4.99959C4.44959 13 3.99959 12.55 3.99959 12C3.99959 11.45 4.44959 11 4.99959 11Z" fill="url(#paint0_linear_1649_21636)"/>
<path d="M4.99959 11H16.1696L11.2896 6.12004C10.8996 5.73004 10.8996 5.09004 11.2896 4.70004C11.3821 4.60733 11.492 4.53379 11.613 4.4836C11.7339 4.43342 11.8636 4.40759 11.9946 4.40759C12.1256 4.40759 12.2552 4.43342 12.3762 4.4836C12.4972 4.53379 12.6071 4.60733 12.6996 4.70004L19.2896 11.29C19.3823 11.3826 19.4558 11.4924 19.506 11.6134C19.5562 11.7344 19.582 11.8641 19.582 11.995C19.582 12.126 19.5562 12.2557 19.506 12.3767C19.4558 12.4976 19.3823 12.6075 19.2896 12.7L12.6996 19.29C12.607 19.3826 12.4971 19.4561 12.3761 19.5062C12.2552 19.5563 12.1255 19.5821 11.9946 19.5821C11.8637 19.5821 11.734 19.5563 11.613 19.5062C11.4921 19.4561 11.3822 19.3826 11.2896 19.29C11.197 19.1975 11.1236 19.0875 11.0735 18.9666C11.0234 18.8456 10.9976 18.716 10.9976 18.585C10.9976 18.4541 11.0234 18.3245 11.0735 18.2035C11.1236 18.0825 11.197 17.9726 11.2896 17.88L16.1696 13H4.99959C4.44959 13 3.99959 12.55 3.99959 12C3.99959 11.45 4.44959 11 4.99959 11Z" fill="url(#paint1_linear_1649_21636)"/>
</g>
<defs>
<linearGradient id="paint0_linear_1649_21636" x1="11.7908" y1="4.40759" x2="11.7908" y2="19.5821" gradientUnits="userSpaceOnUse">
<stop stop-color="#2AC870"/>
<stop offset="1" stop-color="#29C1AF"/>
</linearGradient>
<linearGradient id="paint1_linear_1649_21636" x1="11.7908" y1="4.40759" x2="11.7908" y2="19.5821" gradientUnits="userSpaceOnUse">
<stop stop-color="#2AC870"/>
<stop offset="1" stop-color="#29C1AF"/>
</linearGradient>
<clipPath id="clip0_1649_21636">
<rect width="24" height="24" fill="white" transform="matrix(-1 0 0 1 24 0)"/>
</clipPath>
</defs>
</svg>
