<svg width="31" height="30" viewBox="0 0 31 30" fill="none" xmlns="http://www.w3.org/2000/svg">
<g clip-path="url(#clip0_1023_6972)">
<path d="M15.5 5.54812e-05C12.5333 4.62716e-05 9.6332 0.879773 7.16646 2.52799C4.69972 4.1762 2.77713 6.51888 1.64181 9.25977C0.506498 12.0007 0.209449 15.0167 0.788229 17.9264C1.36701 20.8361 2.79562 23.5088 4.89342 25.6066C7.70646 28.4196 11.5218 30 15.5 30C19.4783 30 23.2936 28.4196 26.1066 25.6066C28.9196 22.7936 30.5 18.9783 30.5 15C30.5 11.0218 28.9196 7.20646 26.1066 4.39342C24.717 2.99618 23.064 1.88845 21.2434 1.13433C19.4227 0.380208 17.4706 -0.00532164 15.5 5.54812e-05ZM6.2351 5.89066C6.41052 6.13337 6.5802 6.39308 6.74416 6.66979C7.91059 8.64434 8.60809 11.2176 8.74322 14H2.53811C2.77316 10.9449 4.08297 8.07181 6.2351 5.89066ZM6.2351 24.1094C4.08297 21.9282 2.77316 19.0551 2.53811 16H8.74322C8.60809 18.7824 7.91059 21.3557 6.74416 23.3302C6.58062 23.6072 6.41093 23.8669 6.2351 24.1094ZM14.5 27.9619C12.0543 27.7752 9.71211 26.8966 7.74697 25.4287C8.00618 25.0816 8.24626 24.7206 8.46616 24.3474C9.80884 22.0744 10.6057 19.1412 10.7456 16H14.5V27.9619ZM14.5 14H10.7456C10.6057 10.859 9.80884 7.92559 8.46616 5.6526C8.24626 5.27938 8.00618 4.91843 7.74697 4.57135C9.71211 3.10345 12.0543 2.22485 14.5 2.03811V14ZM16.5 2.03811C18.9457 2.22485 21.2879 3.10345 23.2531 4.57135C22.9938 4.91843 22.7538 5.27938 22.5339 5.6526C21.1912 7.92559 20.3943 10.8588 20.2544 14H16.5V2.03811ZM16.5 27.9619V16H20.2544C20.3943 19.1411 21.1912 22.0744 22.5339 24.3474C22.7538 24.7206 22.9938 25.0816 23.2531 25.4287C21.2879 26.8966 18.9457 27.7752 16.5 27.9619ZM24.7649 24.1094C24.5895 23.8667 24.4198 23.607 24.2559 23.3302C23.0894 21.3557 22.3919 18.7824 22.2568 16H28.4619C28.2269 19.0551 26.9171 21.9282 24.7649 24.1094ZM22.2568 14C22.3919 11.2176 23.0894 8.64434 24.2559 6.66979C24.4194 6.39287 24.5891 6.13316 24.7649 5.89066C26.9171 8.07181 28.2269 10.9449 28.4619 14H22.2568Z" fill="#2AC870"/>
</g>
<defs>
<clipPath id="clip0_1023_6972">
<rect width="30" height="30" fill="white" transform="translate(0.5)"/>
</clipPath>
</defs>
</svg>
