<svg width="24" height="24" viewBox="0 0 24 24" fill="none" xmlns="http://www.w3.org/2000/svg">
<path fill-rule="evenodd" clip-rule="evenodd" d="M10.5 5.19051V4C10.5 3.60218 10.658 3.22065 10.9393 2.93934C11.2206 2.65804 11.6022 2.5 12 2.5C12.3978 2.5 12.7794 2.65804 13.0607 2.93934C13.342 3.22065 13.5 3.60218 13.5 4V5.19051C14.529 5.45624 15.4783 5.99305 16.2426 6.75736C17.3679 7.88258 18 9.4087 18 11V16H19C19.5523 16 20 16.4477 20 17C20 17.5523 19.5523 18 19 18H5C4.44772 18 4 17.5523 4 17C4 16.4477 4.44772 16 5 16H6V11C6 9.4087 6.63214 7.88258 7.75736 6.75736C8.52167 5.99305 9.47096 5.45624 10.5 5.19051ZM8 16H16V11C16 9.93913 15.5786 8.92172 14.8284 8.17157C14.0783 7.42143 13.0609 7 12 7C10.9391 7 9.92172 7.42143 9.17157 8.17157C8.42143 8.92172 8 9.93913 8 11V16ZM10 20C10 19.4477 10.4477 19 11 19H13C13.5523 19 14 19.4477 14 20C14 20.5304 13.7893 21.0391 13.4142 21.4142C13.0391 21.7893 12.5304 22 12 22C11.4696 22 10.9609 21.7893 10.5858 21.4142C10.2107 21.0391 10 20.5304 10 20Z" fill="#2AC870"/>
</svg>
