<?xml version="1.0" encoding="utf-8"?>
<!-- Generator: Adobe Illustrator 26.0.0, SVG Export Plug-In . SVG Version: 6.00 Build 0)  -->
<svg version="1.1" id="Capa_1" xmlns="http://www.w3.org/2000/svg" xmlns:xlink="http://www.w3.org/1999/xlink" x="0px" y="0px"
	 viewBox="0 0 121 120" style="enable-background:new 0 0 121 120;" xml:space="preserve">
<path d="M84.2,33.5h15.7c0.9,0,1.9,0.4,2.6,1c0.7,0.6,1.1,1.5,1.2,2.5l2.3,23.3h-7.7l-1.9-19.1H84.2v11.5c0,1-0.4,2-1.1,2.7
	c-0.7,0.7-1.7,1.1-2.7,1.1c-1,0-2-0.4-2.7-1.1c-0.7-0.7-1.1-1.7-1.1-2.7V41.2H46v11.5c0,1-0.4,2-1.1,2.7c-0.7,0.7-1.7,1.1-2.7,1.1
	s-2-0.4-2.7-1.1c-0.7-0.7-1.1-1.7-1.1-2.7V41.2H26.2L20,102.3h41.2v7.6H15.8c-0.5,0-1.1-0.1-1.5-0.3c-0.5-0.2-0.9-0.5-1.3-0.9
	c-0.4-0.4-0.6-0.9-0.8-1.4c-0.2-0.5-0.2-1-0.2-1.6L18.9,37c0.1-0.9,0.5-1.8,1.2-2.5c0.7-0.6,1.6-1,2.6-1h15.7v-2.7
	c0-13.3,10.2-24.1,22.9-24.1c12.7,0,22.9,10.8,22.9,24.1V33.5L84.2,33.5z M76.6,33.5v-2.7c0-9.1-6.9-16.4-15.3-16.4
	c-8.4,0-15.3,7.3-15.3,16.4v2.7L76.6,33.5L76.6,33.5z M100.6,91.3l-8.8-8.8V110c0,1-0.4,2-1.1,2.7c-0.7,0.7-1.7,1.1-2.7,1.1
	c-1,0-2-0.4-2.7-1.1c-0.7-0.7-1.1-1.7-1.1-2.7V82.6l-8.8,8.8c-0.4,0.4-0.8,0.7-1.2,0.9c-0.5,0.2-1,0.3-1.5,0.3c-0.5,0-1-0.1-1.5-0.3
	c-0.5-0.2-0.9-0.5-1.3-0.8c-0.4-0.4-0.6-0.8-0.8-1.3c-0.2-0.5-0.3-1-0.3-1.5c0-0.5,0.1-1,0.3-1.5c0.2-0.5,0.5-0.9,0.9-1.2l15.3-15.3
	c0.7-0.7,1.7-1.1,2.7-1.1c1,0,2,0.4,2.7,1.1L106,85.9c0.4,0.4,0.7,0.8,0.9,1.2c0.2,0.5,0.3,1,0.3,1.5c0,0.5-0.1,1-0.3,1.5
	c-0.2,0.5-0.5,0.9-0.8,1.3c-0.4,0.4-0.8,0.6-1.3,0.8c-0.5,0.2-1,0.3-1.5,0.3c-0.5,0-1-0.1-1.5-0.3C101.4,92,101,91.7,100.6,91.3z"/>
</svg>
