<svg width="50" height="50" viewBox="0 0 50 50" fill="none" xmlns="http://www.w3.org/2000/svg">
<path d="M25 3.125C20.6735 3.125 16.4442 4.40795 12.8469 6.8116C9.24959 9.21526 6.44581 12.6317 4.79014 16.6288C3.13448 20.6259 2.70128 25.0243 3.54533 29.2676C4.38938 33.5109 6.47277 37.4087 9.53205 40.468C12.5913 43.5272 16.4891 45.6106 20.7324 46.4547C24.9757 47.2987 29.3741 46.8655 33.3712 45.2099C37.3683 43.5542 40.7848 40.7504 43.1884 37.1531C45.5921 33.5558 46.875 29.3265 46.875 25C46.8684 19.2004 44.5616 13.6403 40.4607 9.53935C36.3597 5.43842 30.7996 3.13162 25 3.125ZM43.6719 23.4391H34.2344C33.974 21.8735 33.3193 20.3999 32.332 19.1574C31.3446 17.9148 30.0571 16.9441 28.5908 16.3368C27.1245 15.7295 25.5277 15.5056 23.9509 15.6861C22.3741 15.8666 20.8692 16.4457 19.5781 17.3688L12.9063 10.6969C15.5301 8.46937 18.7174 7.00855 22.1177 6.47505C25.5179 5.94155 28.9994 6.35603 32.1794 7.67292C35.3594 8.9898 38.1146 11.1581 40.1422 13.9393C42.1697 16.7206 43.3911 20.0071 43.6719 23.4375V23.4391ZM25 31.25C23.7639 31.25 22.5555 30.8834 21.5277 30.1967C20.4999 29.5099 19.6988 28.5338 19.2258 27.3918C18.7527 26.2497 18.6289 24.9931 18.8701 23.7807C19.1113 22.5683 19.7065 21.4547 20.5806 20.5806C21.4547 19.7065 22.5683 19.1112 23.7807 18.8701C24.9931 18.6289 26.2497 18.7527 27.3918 19.2258C28.5338 19.6988 29.5099 20.4999 30.1967 21.5277C30.8835 22.5555 31.25 23.7639 31.25 25C31.2479 26.657 30.5888 28.2455 29.4171 29.4171C28.2455 30.5888 26.657 31.2479 25 31.25ZM6.25001 25C6.24853 20.5685 7.82495 16.2812 10.6969 12.9062L17.3688 19.5781C16.4466 20.8693 15.8682 22.374 15.6881 23.9504C15.5079 25.5268 15.7319 27.1232 16.3389 28.5891C16.9459 30.0551 17.916 31.3425 19.1579 32.3301C20.3997 33.3177 21.8725 33.973 23.4375 34.2344V43.6719C18.7551 43.2767 14.3913 41.1392 11.2089 37.6819C8.02639 34.2245 6.25684 29.6991 6.25001 25ZM26.5625 43.6719V34.2344C28.4782 33.9072 30.2451 32.9935 31.6193 31.6193C32.9935 30.2451 33.9072 28.4782 34.2344 26.5625H43.6719C43.2976 30.9748 41.3748 35.1125 38.2436 38.2436C35.1125 41.3748 30.9748 43.2976 26.5625 43.6719Z" fill="#2AC870"/>
</svg>
