<svg width="32" height="32" viewBox="0 0 32 32" fill="none" xmlns="http://www.w3.org/2000/svg">
<path d="M15.9987 2.66663C8.63469 2.66663 2.66535 8.63596 2.66535 16C2.66535 23.364 8.63469 29.3333 15.9987 29.3333C18.4278 29.3371 20.8113 28.6739 22.8894 27.416L26.932 28.6053C27.1641 28.6736 27.4104 28.6781 27.6448 28.6183C27.8792 28.5585 28.0933 28.4367 28.2643 28.2656C28.4354 28.0945 28.5573 27.8805 28.617 27.6461C28.6768 27.4116 28.6723 27.1654 28.604 26.9333L27.4147 22.8906C28.6721 20.8124 29.3352 18.429 29.332 16C29.332 8.63596 23.3627 2.66663 15.9987 2.66663ZM15.9987 5.33329C17.9085 5.33295 19.7834 5.84537 21.4276 6.81705C23.0717 7.78872 24.4249 9.18402 25.3457 10.8572C26.2665 12.5304 26.7211 14.4201 26.6622 16.3291C26.6033 18.238 26.0329 20.0961 25.0107 21.7093C24.708 22.1853 24.604 22.7853 24.7747 23.3626L25.3627 25.364L23.3614 24.776C22.784 24.6053 22.184 24.7093 21.708 25.012C20.3102 25.897 18.7258 26.4448 17.0798 26.612C15.4339 26.7792 13.7716 26.5613 12.2244 25.9754C10.6772 25.3895 9.28749 24.4518 8.16512 23.2363C7.04275 22.0209 6.21849 20.561 5.75751 18.9721C5.29653 17.3832 5.21146 15.7089 5.50903 14.0814C5.80659 12.454 6.47863 10.9181 7.47203 9.59513C8.46543 8.27216 9.75294 7.1984 11.2328 6.45873C12.7127 5.71907 14.3443 5.33377 15.9987 5.33329Z" fill="#2AC870"/>
<path d="M20.9987 15.5C20.9987 16.3284 21.6703 17 22.4987 17C23.3271 17 23.9987 16.3284 23.9987 15.5C23.9987 14.6715 23.3271 14 22.4987 14C21.6703 14 20.9987 14.6715 20.9987 15.5Z" fill="#2AC870"/>
<path d="M14.9987 15.5C14.9987 16.3284 15.6703 17 16.4987 17C17.3271 17 17.9987 16.3284 17.9987 15.5C17.9987 14.6715 17.3271 14 16.4987 14C15.6703 14 14.9987 14.6715 14.9987 15.5Z" fill="#2AC870"/>
<path d="M8.99869 15.5C8.99869 16.3284 9.67026 17 10.4987 17C11.3271 17 11.9987 16.3284 11.9987 15.5C11.9987 14.6715 11.3271 14 10.4987 14C9.67026 14 8.99869 14.6715 8.99869 15.5Z" fill="#2AC870"/>
</svg>
