<?xml version="1.0" encoding="utf-8"?>
<!-- Generator: Adobe Illustrator 26.0.0, SVG Export Plug-In . SVG Version: 6.00 Build 0)  -->
<svg version="1.1" id="Capa_1" xmlns="http://www.w3.org/2000/svg" xmlns:xlink="http://www.w3.org/1999/xlink" x="0px" y="0px"
	 viewBox="0 0 60 60" style="enable-background:new 0 0 60 60;" xml:space="preserve">
<path d="M55.8,12.2c-0.5-0.5-1.2-0.8-1.9-0.8c-0.7,0-1.3,0.3-1.7,0.8L22,42.5L9.8,30.2c-1-1-2.5-1-3.5-0.1c-0.5,0.5-0.8,1.1-0.8,1.8
	c0,0.7,0.2,1.3,0.8,1.8l14,14c0.5,0.5,1.1,0.7,1.8,0.7s1.3-0.2,1.8-0.7l32-32c0.5-0.5,0.7-1.1,0.8-1.8
	C56.5,13.3,56.3,12.7,55.8,12.2z"/>
</svg>
