<?xml version="1.0" encoding="utf-8"?>
<!-- Generator: Adobe Illustrator 26.0.0, SVG Export Plug-In . SVG Version: 6.00 Build 0)  -->
<svg version="1.1" id="Capa_1" xmlns="http://www.w3.org/2000/svg" xmlns:xlink="http://www.w3.org/1999/xlink" x="0px" y="0px"
	 viewBox="0 0 800 800" style="enable-background:new 0 0 800 800;" xml:space="preserve">
<path d="M742.4,191.8c-9.6-9.6-22.4-14.9-36-14.9c0,0,0,0,0,0c-13.6,0-26.4,5.3-36,14.9L394.2,468L117.9,191.8
	c-9.6-9.6-22.4-14.9-36-14.9c0,0,0,0,0,0c-13.6,0-26.4,5.3-36,14.9c-9.6,9.6-14.9,22.4-14.9,36c0,13.6,5.3,26.4,14.9,36L358.2,576
	c9.6,9.6,22.4,14.9,36,14.9c13.6,0,26.4-5.3,36-14.9l312.3-312.2C762.2,243.9,762.2,211.6,742.4,191.8z"/>
</svg>
