<svg width="31" height="30" viewBox="0 0 31 30" fill="none" xmlns="http://www.w3.org/2000/svg">
<path fill-rule="evenodd" clip-rule="evenodd" d="M4 15C4 8.64873 9.14873 3.5 15.5 3.5C21.8513 3.5 27 8.64873 27 15C27 21.3513 21.8513 26.5 15.5 26.5C9.14873 26.5 4 21.3513 4 15ZM15.5 1.5C8.04416 1.5 2 7.54416 2 15C2 22.4558 8.04416 28.5 15.5 28.5C22.9558 28.5 29 22.4558 29 15C29 7.54416 22.9558 1.5 15.5 1.5ZM16.5 7.5C16.5 6.94772 16.0523 6.5 15.5 6.5C14.9477 6.5 14.5 6.94772 14.5 7.5V15C14.5 15.3788 14.714 15.725 15.0528 15.8944L20.0528 18.3944C20.5468 18.6414 21.1474 18.4412 21.3944 17.9472C21.6414 17.4532 21.4412 16.8526 20.9472 16.6056L16.5 14.382V7.5Z" fill="#2AC870"/>
</svg>
