<?xml version="1.0" encoding="utf-8"?>
<!-- Generator: Adobe Illustrator 26.0.0, SVG Export Plug-In . SVG Version: 6.00 Build 0)  -->
<svg version="1.1" id="Capa_1" xmlns="http://www.w3.org/2000/svg" xmlns:xlink="http://www.w3.org/1999/xlink" x="0px" y="0px"
	 viewBox="0 0 31 30" style="enable-background:new 0 0 31 30;" xml:space="preserve">
<style type="text/css">
	.st0{fill:#2AC870;}
</style>
<g>
	<path class="st0" d="M13,7c0.6,0,1-0.4,1-1V2.2c0-0.6-0.4-1-1-1s-1,0.4-1,1V6C12,6.6,12.4,7,13,7z"/>
	<path class="st0" d="M18,7c0.6,0,1-0.4,1-1V2.2c0-0.6-0.4-1-1-1s-1,0.4-1,1V6C17,6.6,17.4,7,18,7z"/>
	<path class="st0" d="M8,7c0.6,0,1-0.4,1-1V2.2c0-0.6-0.4-1-1-1s-1,0.4-1,1V6C7,6.6,7.4,7,8,7z"/>
	<path class="st0" d="M28.5,11.8c-1.1-1.1-2.7-1.8-4.2-1.8H23H3c-0.6,0-1,0.4-1,1v11.2c0,1.6,0.6,3.1,1.8,4.2
		c1.1,1.1,2.7,1.8,4.2,1.8h10c1.6,0,3.1-0.6,4.2-1.8c1.1-1.1,1.8-2.7,1.8-4.2V22h0.2c1.6,0,3.1-0.6,4.2-1.8c1.1-1.1,1.8-2.7,1.8-4.2
		S29.6,12.9,28.5,11.8z M22,21v1.2c0,1.1-0.4,2.1-1.2,2.8c-0.8,0.8-1.8,1.2-2.8,1.2H8c-1.1,0-2.1-0.4-2.8-1.2
		C4.4,24.3,4,23.3,4,22.2V12h18V21z M27.1,18.8c-0.8,0.8-1.8,1.2-2.8,1.2H24v-8h0.2c1.1,0,2.1,0.4,2.8,1.2c0.8,0.8,1.2,1.8,1.2,2.8
		S27.8,18.1,27.1,18.8z"/>
</g>
</svg>
