<svg width="32" height="32" viewBox="0 0 32 32" fill="none" xmlns="http://www.w3.org/2000/svg">
<path d="M5.46551 16.88C5.67926 16.6367 5.79715 16.3239 5.79715 16C5.79715 15.6761 5.67926 15.3633 5.46551 15.12L3.75884 13.2C3.57078 12.9902 3.45399 12.7263 3.42525 12.446C3.39651 12.1658 3.45727 11.8836 3.59884 11.64L6.26551 7.02667C6.40564 6.78336 6.619 6.5905 6.87517 6.47558C7.13135 6.36066 7.41727 6.32955 7.69217 6.38667L10.1988 6.89334C10.5178 6.95924 10.8498 6.90612 11.1323 6.744C11.4148 6.58188 11.6282 6.32198 11.7322 6.01334L12.5455 3.57334C12.635 3.30851 12.8054 3.07849 13.0327 2.91579C13.26 2.75309 13.5326 2.66595 13.8122 2.66667H19.1455C19.4363 2.65149 19.724 2.7319 19.9648 2.89562C20.2055 3.05934 20.3861 3.29736 20.4788 3.57334L21.2255 6.01334C21.3295 6.32198 21.5429 6.58188 21.8254 6.744C22.1078 6.90612 22.4399 6.95924 22.7588 6.89334L25.3322 6.38667C25.5928 6.34984 25.8584 6.39097 26.0957 6.50486C26.333 6.61875 26.5312 6.80031 26.6655 7.02667L29.3322 11.64C29.4773 11.8809 29.5425 12.1615 29.5186 12.4416C29.4946 12.7218 29.3827 12.9873 29.1988 13.2L27.5055 15.12C27.2917 15.3633 27.1739 15.6761 27.1739 16C27.1739 16.3239 27.2917 16.6367 27.5055 16.88L29.1988 18.8C29.3827 19.0127 29.4946 19.2782 29.5186 19.5584C29.5425 19.8386 29.4773 20.1191 29.3322 20.36L26.6655 24.9733C26.5254 25.2166 26.312 25.4095 26.0558 25.5244C25.7997 25.6393 25.5137 25.6705 25.2388 25.6133L22.7322 25.1067C22.4132 25.0408 22.0812 25.0939 21.7987 25.256C21.5162 25.4181 21.3028 25.678 21.1988 25.9867L20.3855 28.4267C20.2927 28.7026 20.1122 28.9407 19.8714 29.1044C19.6307 29.2681 19.3429 29.3485 19.0522 29.3333H13.7188C13.4393 29.3341 13.1666 29.2469 12.9393 29.0842C12.712 28.9215 12.5416 28.6915 12.4522 28.4267L11.6388 25.9867C11.5348 25.678 11.3215 25.4181 11.039 25.256C10.7565 25.0939 10.4245 25.0408 10.1055 25.1067L7.59884 25.6133C7.32394 25.6705 7.03802 25.6393 6.78184 25.5244C6.52566 25.4095 6.3123 25.2166 6.17217 24.9733L3.5055 20.36C3.36394 20.1164 3.30317 19.8343 3.33192 19.554C3.36066 19.2737 3.47744 19.0098 3.6655 18.8L5.46551 16.88ZM7.45217 18.6667L6.38551 19.8667L8.09217 22.8267L9.66551 22.5067C10.6258 22.3104 11.6247 22.4735 12.4727 22.9651C13.3207 23.4566 13.9586 24.2425 14.2655 25.1733L14.7722 26.6667H18.1855L18.6655 25.1467C18.9724 24.2158 19.6103 23.43 20.4583 22.9384C21.3063 22.4468 22.3052 22.2837 23.2655 22.48L24.8388 22.8L26.5722 19.8533L25.5055 18.6533C24.8496 17.92 24.4869 16.9706 24.4869 15.9867C24.4869 15.0028 24.8496 14.0534 25.5055 13.32L26.5722 12.12L24.8655 9.18667L23.2922 9.50667C22.3319 9.70297 21.3329 9.53984 20.485 9.04827C19.637 8.55669 18.999 7.77088 18.6922 6.84L18.1855 5.33334H14.7722L14.2655 6.85334C13.9586 7.78421 13.3207 8.57002 12.4727 9.0616C11.6247 9.55318 10.6258 9.7163 9.66551 9.52L8.09217 9.2L6.38551 12.16L7.45217 13.36C8.10075 14.0917 8.45888 15.0356 8.45888 16.0133C8.45888 16.9911 8.10075 17.935 7.45217 18.6667ZM16.4788 10.6667C17.5337 10.6667 18.5648 10.9795 19.4419 11.5655C20.3189 12.1515 21.0025 12.9845 21.4062 13.959C21.8099 14.9336 21.9155 16.0059 21.7097 17.0405C21.5039 18.0751 20.996 19.0254 20.2501 19.7712C19.5042 20.5171 18.5539 21.0251 17.5193 21.2309C16.4848 21.4366 15.4124 21.331 14.4379 20.9274C13.4633 20.5237 12.6304 19.8401 12.0443 18.963C11.4583 18.086 11.1455 17.0548 11.1455 16C11.1455 14.5855 11.7074 13.229 12.7076 12.2288C13.7078 11.2286 15.0644 10.6667 16.4788 10.6667ZM16.4788 18.6667C17.0063 18.6667 17.5218 18.5103 17.9604 18.2173C18.3989 17.9242 18.7407 17.5078 18.9425 17.0205C19.1444 16.5332 19.1972 15.997 19.0943 15.4798C18.9914 14.9625 18.7374 14.4873 18.3645 14.1144C17.9915 13.7414 17.5164 13.4875 16.9991 13.3846C16.4818 13.2817 15.9456 13.3345 15.4583 13.5363C14.9711 13.7382 14.5546 14.08 14.2616 14.5185C13.9686 14.957 13.8122 15.4726 13.8122 16C13.8122 16.7072 14.0931 17.3855 14.5932 17.8856C15.0933 18.3857 15.7716 18.6667 16.4788 18.6667Z" fill="#152930" fill-opacity="0.4"/>
</svg>
