<svg width="24" height="24" viewBox="0 0 24 24" fill="none" xmlns="http://www.w3.org/2000/svg">
<path fill-rule="evenodd" clip-rule="evenodd" d="M12 4C10.1435 4 8.36301 4.7375 7.05025 6.05025C5.7375 7.36301 5 9.14348 5 11V14C5 14.5523 4.55228 15 4 15C3.44772 15 3 14.5523 3 14V11C3 8.61305 3.94821 6.32387 5.63604 4.63604C7.32387 2.94821 9.61305 2 12 2C14.3869 2 16.6761 2.94821 18.364 4.63604C20.0518 6.32387 21 8.61305 21 11V14C21 14.5523 20.5523 15 20 15C19.4477 15 19 14.5523 19 14V11C19 9.14348 18.2625 7.36301 16.9497 6.05025C15.637 4.7375 13.8565 4 12 4ZM18 18C18.5523 18 19 18.4477 19 19C19 20.4113 17.8821 21.4197 16.69 22.0158C15.4381 22.6417 13.7786 23 12 23C11.4477 23 11 22.5523 11 22C11 21.4477 11.4477 21 12 21C13.5354 21 14.8759 20.6868 15.7955 20.2269C16.7749 19.7373 17 19.2457 17 19C17 18.4477 17.4477 18 18 18Z" fill="#2AC870"/>
<path fill-rule="evenodd" clip-rule="evenodd" d="M6 13C5.73478 13 5.48043 13.1054 5.29289 13.2929C5.10536 13.4804 5 13.7348 5 14V17C5 17.2652 5.10536 17.5196 5.29289 17.7071C5.48043 17.8946 5.73478 18 6 18H7C7.26522 18 7.51957 17.8946 7.70711 17.7071C7.89464 17.5196 8 17.2652 8 17V14C8 13.7348 7.89464 13.4804 7.70711 13.2929C7.51957 13.1054 7.26522 13 7 13H6ZM3.87868 11.8787C4.44129 11.3161 5.20435 11 6 11H7C7.79565 11 8.55871 11.3161 9.12132 11.8787C9.68393 12.4413 10 13.2043 10 14V17C10 17.7957 9.68393 18.5587 9.12132 19.1213C8.55871 19.6839 7.79565 20 7 20H6C5.20435 20 4.44129 19.6839 3.87868 19.1213C3.31607 18.5587 3 17.7956 3 17V14C3 13.2044 3.31607 12.4413 3.87868 11.8787ZM17 13C16.7348 13 16.4804 13.1054 16.2929 13.2929C16.1054 13.4804 16 13.7348 16 14V17C16 17.2652 16.1054 17.5196 16.2929 17.7071C16.4804 17.8946 16.7348 18 17 18H18C18.2652 18 18.5196 17.8946 18.7071 17.7071C18.8946 17.5196 19 17.2652 19 17V14C19 13.7348 18.8946 13.4804 18.7071 13.2929C18.5196 13.1054 18.2652 13 18 13H17ZM14.8787 11.8787C15.4413 11.3161 16.2043 11 17 11H18C18.7957 11 19.5587 11.3161 20.1213 11.8787C20.6839 12.4413 21 13.2043 21 14V17C21 17.7957 20.6839 18.5587 20.1213 19.1213C19.5587 19.6839 18.7957 20 18 20H17C16.2043 20 15.4413 19.6839 14.8787 19.1213C14.3161 18.5587 14 17.7957 14 17V14C14 13.2043 14.3161 12.4413 14.8787 11.8787Z" fill="#2AC870"/>
</svg>
