<svg width="15" height="14" viewBox="0 0 15 14" fill="none" xmlns="http://www.w3.org/2000/svg">
<path d="M12.5586 3.72012V1.96875C12.5586 1.72676 12.3631 1.53125 12.1211 1.53125H2.87891C2.63692 1.53125 2.44141 1.72676 2.44141 1.96875V3.72012C2.21309 3.73379 2.03126 3.92383 2.03126 4.15625V5.95684C2.03038 6.28776 2.09739 6.61534 2.22813 6.91934C2.28692 7.05879 2.35938 7.19004 2.44141 7.31445V12.0312C2.44141 12.2719 2.63692 12.4688 2.87891 12.4688H12.1211C12.3631 12.4688 12.5586 12.2732 12.5586 12.0312V7.31445C12.6419 7.18972 12.7133 7.05744 12.7719 6.91934C12.9018 6.61445 12.9688 6.29043 12.9688 5.95684V4.15625C12.9688 3.92383 12.7869 3.73379 12.5586 3.72012ZM3.42579 2.51562H11.5742V3.71875H3.42579V2.51562ZM8.37501 11.4857H6.62501V10.0625H8.37501V11.4857ZM11.5742 11.4857H9.25001V9.625C9.25001 9.38301 9.0545 9.1875 8.81251 9.1875H6.18751C5.94552 9.1875 5.75001 9.38301 5.75001 9.625V11.4857H3.42579V8.17441C3.46544 8.19355 3.50645 8.2127 3.54884 8.2291C3.85372 8.35762 4.17774 8.42188 4.51134 8.42188C4.84493 8.42188 5.16759 8.35762 5.47384 8.2291C5.66251 8.14981 5.84024 8.04863 6.00294 7.92695C6.00567 7.92559 6.00841 7.92559 6.01114 7.92695C6.17434 8.04915 6.35207 8.15064 6.54024 8.2291C6.84513 8.35762 7.16915 8.42188 7.50274 8.42188C7.83634 8.42188 8.15899 8.35762 8.46524 8.2291C8.65391 8.14981 8.83165 8.04863 8.99434 7.92695C8.99708 7.92559 8.99981 7.92559 9.00255 7.92695C9.16575 8.04915 9.34347 8.15064 9.53165 8.2291C9.83653 8.35762 10.1606 8.42188 10.4941 8.42188C10.8277 8.42188 11.1504 8.35762 11.4566 8.2291C11.4977 8.21133 11.5387 8.19355 11.5797 8.17441V11.4857H11.5742ZM11.9844 5.95684C11.9844 6.77441 11.3145 7.4375 10.49 7.4375C9.93224 7.4375 9.44552 7.13535 9.18849 6.68691C9.14884 6.61855 9.07774 6.57617 8.99845 6.57617H8.99024C8.91231 6.57617 8.83985 6.61855 8.8002 6.68691C8.66903 6.91567 8.47964 7.10561 8.25127 7.23745C8.0229 7.36928 7.7637 7.43831 7.50001 7.4375C6.94356 7.4375 6.45821 7.13672 6.20118 6.68965C6.16016 6.61992 6.08634 6.57617 6.00567 6.57617C5.92501 6.57617 5.84981 6.61992 5.81016 6.68965C5.67823 6.91753 5.48859 7.10663 5.26034 7.23791C5.03209 7.3692 4.77328 7.43804 4.50997 7.4375C3.68556 7.4375 3.01563 6.77441 3.01563 5.95684V4.70996C3.01563 4.70586 3.01837 4.70312 3.02247 4.70312H11.9775C11.9816 4.70312 11.9844 4.70586 11.9844 4.70996V5.95684Z" fill="#2AC870"/>
</svg>
