<?xml version="1.0" encoding="utf-8"?>
<!-- Generator: Adobe Illustrator 26.0.0, SVG Export Plug-In . SVG Version: 6.00 Build 0)  -->
<svg version="1.1" id="Capa_1" xmlns="http://www.w3.org/2000/svg" xmlns:xlink="http://www.w3.org/1999/xlink" x="0px" y="0px"
	 viewBox="0 0 22 18.8" style="enable-background:new 0 0 22 18.8;" xml:space="preserve">
<style type="text/css">
	.st0{fill:#2AC870;}
</style>
<g>
	<path class="st0" d="M18.1,17.7h-14c-0.8,0-1.6-0.3-2.1-0.9c-0.6-0.6-0.9-1.3-0.9-2.1v-10c0-0.8,0.3-1.6,0.9-2.1
		C2.5,2,3.3,1.7,4.1,1.7h14c0.8,0,1.6,0.3,2.1,0.9s0.9,1.3,0.9,2.1v10c0,0.8-0.3,1.6-0.9,2.1S18.9,17.7,18.1,17.7z M4.1,3.7
		C3.8,3.7,3.5,3.8,3.4,4C3.2,4.1,3.1,4.4,3.1,4.7v10c0,0.3,0.1,0.5,0.3,0.7c0.2,0.2,0.4,0.3,0.7,0.3h14c0.3,0,0.5-0.1,0.7-0.3
		s0.3-0.4,0.3-0.7v-10c0-0.3-0.1-0.5-0.3-0.7c-0.2-0.2-0.4-0.3-0.7-0.3H4.1z M11.1,11.1c-0.7,0-1.3-0.2-1.9-0.7l-3.7-3
		C5,7.1,4.9,6.5,5.3,6c0.3-0.4,1-0.5,1.4-0.2l3.8,3c0.4,0.3,0.9,0.3,1.2,0l3.8-3c0.4-0.3,1.1-0.3,1.4,0.2c0.3,0.4,0.3,1.1-0.2,1.4
		l-3.8,3C12.4,10.9,11.7,11.1,11.1,11.1z"/>
</g>
</svg>
