<svg width="25" height="24" viewBox="0 0 25 24" fill="none" xmlns="http://www.w3.org/2000/svg">
<g id="Sign Icons">
<path id="Vector" d="M9.281 9.219C9.21133 9.14916 9.12857 9.09374 9.03745 9.05593C8.94633 9.01812 8.84865 8.99866 8.75 8.99866C8.65135 8.99866 8.55367 9.01812 8.46255 9.05593C8.37143 9.09374 8.28867 9.14916 8.219 9.219L7.25 10.1895L6.281 9.219C6.21127 9.14927 6.12848 9.09395 6.03737 9.05621C5.94627 9.01848 5.84862 8.99905 5.75 8.99905C5.65138 8.99905 5.55373 9.01848 5.46263 9.05621C5.37152 9.09395 5.28873 9.14927 5.219 9.219C5.14927 9.28873 5.09395 9.37152 5.05622 9.46262C5.01848 9.55373 4.99905 9.65138 4.99905 9.75C4.99905 9.84862 5.01848 9.94627 5.05622 10.0374C5.09395 10.1285 5.14927 10.2113 5.219 10.281L6.1895 11.25L5.219 12.219C5.14927 12.2887 5.09395 12.3715 5.05622 12.4626C5.01848 12.5537 4.99905 12.6514 4.99905 12.75C4.99905 12.8486 5.01848 12.9463 5.05622 13.0374C5.09395 13.1285 5.14927 13.2113 5.219 13.281C5.35983 13.4218 5.55084 13.5009 5.75 13.5009C5.84862 13.5009 5.94627 13.4815 6.03737 13.4438C6.12848 13.406 6.21127 13.3507 6.281 13.281L7.25 12.3105L8.219 13.281C8.28873 13.3507 8.37152 13.406 8.46262 13.4438C8.55373 13.4815 8.65138 13.5009 8.75 13.5009C8.84862 13.5009 8.94627 13.4815 9.03738 13.4438C9.12848 13.406 9.21127 13.3507 9.281 13.281C9.35073 13.2113 9.40605 13.1285 9.44379 13.0374C9.48152 12.9463 9.50095 12.8486 9.50095 12.75C9.50095 12.6514 9.48152 12.5537 9.44379 12.4626C9.40605 12.3715 9.35073 12.2887 9.281 12.219L8.3105 11.25L9.281 10.281C9.35084 10.2113 9.40626 10.1286 9.44407 10.0375C9.48188 9.94633 9.50134 9.84865 9.50134 9.75C9.50134 9.65135 9.48188 9.55367 9.44407 9.46255C9.40626 9.37143 9.35084 9.28867 9.281 9.219ZM14.219 9.219C14.2887 9.14927 14.3715 9.09395 14.4626 9.05621C14.5537 9.01848 14.6514 8.99905 14.75 8.99905C14.8486 8.99905 14.9463 9.01848 15.0374 9.05621C15.1285 9.09395 15.2113 9.14927 15.281 9.219C15.3507 9.28873 15.406 9.37152 15.4438 9.46262C15.4815 9.55373 15.5009 9.65138 15.5009 9.75C15.5009 9.84862 15.4815 9.94627 15.4438 10.0374C15.406 10.1285 15.3507 10.2113 15.281 10.281L14.3105 11.25L15.281 12.219C15.4218 12.3598 15.5009 12.5508 15.5009 12.75C15.5009 12.9492 15.4218 13.1402 15.281 13.281C15.1402 13.4218 14.9492 13.5009 14.75 13.5009C14.5508 13.5009 14.3598 13.4218 14.219 13.281L13.25 12.3105L12.281 13.281C12.2113 13.3507 12.1285 13.406 12.0374 13.4438C11.9463 13.4815 11.8486 13.5009 11.75 13.5009C11.6514 13.5009 11.5537 13.4815 11.4626 13.4438C11.3715 13.406 11.2887 13.3507 11.219 13.281C11.1493 13.2113 11.094 13.1285 11.0562 13.0374C11.0185 12.9463 10.9991 12.8486 10.9991 12.75C10.9991 12.6514 11.0185 12.5537 11.0562 12.4626C11.094 12.3715 11.1493 12.2887 11.219 12.219L12.1895 11.25L11.219 10.281C11.1493 10.2113 11.094 10.1285 11.0562 10.0374C11.0185 9.94627 10.9991 9.84862 10.9991 9.75C10.9991 9.65138 11.0185 9.55373 11.0562 9.46262C11.094 9.37152 11.1493 9.28873 11.219 9.219C11.2887 9.14927 11.3715 9.09395 11.4626 9.05621C11.5537 9.01848 11.6514 8.99905 11.75 8.99905C11.8486 8.99905 11.9463 9.01848 12.0374 9.05621C12.1285 9.09395 12.2113 9.14927 12.281 9.219L13.25 10.1895L14.219 9.219ZM17.75 12C17.5511 12 17.3603 12.079 17.2197 12.2197C17.079 12.3603 17 12.5511 17 12.75C17 12.9489 17.079 13.1397 17.2197 13.2803C17.3603 13.421 17.5511 13.5 17.75 13.5H19.25C19.4489 13.5 19.6397 13.421 19.7803 13.2803C19.921 13.1397 20 12.9489 20 12.75C20 12.5511 19.921 12.3603 19.7803 12.2197C19.6397 12.079 19.4489 12 19.25 12H17.75ZM5.75 4.5C4.75544 4.5 3.80161 4.89509 3.09835 5.59835C2.39509 6.30161 2 7.25544 2 8.25V14.25C2 14.7425 2.097 15.2301 2.28545 15.6851C2.47391 16.14 2.75013 16.5534 3.09835 16.9017C3.80161 17.6049 4.75544 18 5.75 18H19.25C19.7425 18 20.2301 17.903 20.6851 17.7145C21.14 17.5261 21.5534 17.2499 21.9016 16.9017C22.2499 16.5534 22.5261 16.14 22.7145 15.6851C22.903 15.2301 23 14.7425 23 14.25V8.25C23 7.25544 22.6049 6.30161 21.9016 5.59835C21.1984 4.89509 20.2446 4.5 19.25 4.5H5.75ZM3.5 8.25C3.5 7.65326 3.73705 7.08097 4.15901 6.65901C4.58097 6.23705 5.15326 6 5.75 6H19.25C19.8467 6 20.419 6.23705 20.841 6.65901C21.2629 7.08097 21.5 7.65326 21.5 8.25V14.25C21.5 14.8467 21.2629 15.419 20.841 15.841C20.419 16.2629 19.8467 16.5 19.25 16.5H5.75C5.15326 16.5 4.58097 16.2629 4.15901 15.841C3.73705 15.419 3.5 14.8467 3.5 14.25V8.25Z" fill="#2AC870"/>
</g>
</svg>
