<?xml version="1.0" encoding="utf-8"?>
<!-- Generator: Adobe Illustrator 26.0.0, SVG Export Plug-In . SVG Version: 6.00 Build 0)  -->
<svg version="1.1" id="Capa_1" xmlns="http://www.w3.org/2000/svg" xmlns:xlink="http://www.w3.org/1999/xlink" x="0px" y="0px"
	 viewBox="0 0 121 120" style="enable-background:new 0 0 121 120;" xml:space="preserve">
<path d="M62,13.4c-0.5,0-1,0.1-1.5,0.3c-0.5,0.2-0.9,0.6-1.2,1l-0.6,0.5c-12.1-3.7-25.9-1-35.5,8.3c-4,3.8-7,8.6-8.7,13.9
	c-1.7,5.3-2,10.9-0.9,16.3c-0.1,0.1-0.2,0.2-0.4,0.3l-5.5,5.3c-1.1,1-1.9,2.2-2.5,3.5c-0.6,1.3-0.9,2.8-0.9,4.2
	c0,1.5,0.3,2.9,0.9,4.2c0.6,1.3,1.4,2.5,2.5,3.5c2.8,2.7,6.7,3.7,10.3,3c0.4,2,1.5,4,3.1,5.5c2.2,2.1,4.9,3.1,7.8,3.2
	c0.1,2.7,1.2,5.4,3.3,7.5c2.2,2.1,5,3.2,7.8,3.2c0.1,2.7,1.2,5.4,3.3,7.5c2.1,2,4.8,3.1,7.6,3.2c2.8,0.1,5.6-0.8,7.8-2.6l3.1,2.9
	c4.5,4.3,11.8,4.3,16.2,0c2.1-2.1,3.3-4.7,3.4-7.4c2.9-0.1,5.6-1.2,7.7-3.2c2.1-2.1,3.3-4.7,3.3-7.4c2.8-0.1,5.6-1.2,7.6-3.2
	c1.7-1.6,2.8-3.7,3.2-5.8c1.8,0.3,3.7,0.2,5.4-0.3c1.8-0.5,3.4-1.5,4.7-2.7c1.1-1,1.9-2.2,2.5-3.5c0.6-1.3,0.9-2.8,0.9-4.2
	s-0.3-2.9-0.9-4.2c-0.6-1.3-1.4-2.5-2.5-3.5l-5-4.9l1-3.9c2.1-7.9,1-16.3-2.9-23.4c-5.9-10.6-17.2-17.1-29.5-17.1h-8.6
	c-0.4,0-0.7,0-1.1,0H62z M79.2,39.4L96,55.6l0,0l12.2,11.8c0.4,0.4,0.7,0.8,0.9,1.3c0.2,0.5,0.3,1,0.3,1.6c0,0.5-0.1,1.1-0.3,1.6
	c-0.2,0.5-0.5,1-0.9,1.3c-0.8,0.8-1.9,1.2-3,1.2c-1.1,0-2.2-0.4-3-1.2l-9.3-8.9c-0.7-0.7-1.6-1-2.5-1c-0.9,0-1.8,0.4-2.5,1l-0.1,0.1
	c-0.3,0.3-0.6,0.7-0.8,1.1c-0.2,0.4-0.3,0.9-0.3,1.3c0,0.5,0.1,0.9,0.3,1.3c0.2,0.4,0.4,0.8,0.8,1.1l7.2,7c1.7,1.6,1.7,4.2,0,5.9
	c-0.7,0.7-1.7,1.1-2.7,1.2c-1,0.1-2-0.2-2.9-0.8c-0.7-0.5-1.5-0.7-2.4-0.7c-0.9,0.1-1.7,0.4-2.3,1c-0.6,0.6-1,1.4-1,2.2
	c-0.1,0.8,0.2,1.7,0.7,2.3c0.6,0.8,0.9,1.8,0.9,2.8c-0.1,1-0.5,1.9-1.2,2.6c-0.8,0.7-1.7,1.1-2.8,1.2c-1,0.1-2.1-0.2-2.9-0.9
	c-0.7-0.5-1.5-0.8-2.4-0.7c-0.9,0-1.7,0.4-2.3,1c-0.6,0.6-1,1.4-1,2.2s0.2,1.7,0.7,2.3c0.6,0.8,1,1.8,0.9,2.8c-0.1,1-0.5,2-1.3,2.7
	c-0.8,0.8-1.9,1.2-3.1,1.2c-1.1,0-2.2-0.4-3.1-1.2l-3-2.9l1.1-1.1c1.1-1,1.9-2.2,2.5-3.5c0.6-1.3,0.9-2.8,0.9-4.2
	c0-1.5-0.3-2.9-0.9-4.2c-0.6-1.3-1.4-2.5-2.5-3.5c-2.1-2-4.9-3.2-7.8-3.2c-0.1-2.8-1.3-5.5-3.3-7.5c-2.1-2-4.9-3.2-7.8-3.2
	c-0.1-2.8-1.3-5.5-3.3-7.5c-1.3-1.3-3-2.2-4.8-2.7c-1.8-0.5-3.7-0.6-5.5-0.3c-0.5-2.1-1.5-4-3.1-5.5c-1.2-1.1-2.6-2-4.2-2.6
	c-1.6-0.5-3.2-0.8-4.9-0.6c-0.6-4.1-0.1-8.3,1.3-12.2c1.4-3.9,3.7-7.4,6.7-10.3c3-2.9,6.7-5.1,10.7-6.4s8.2-1.8,12.4-1.3L41,28.1
	c-1.3,0.9-2.4,2.1-3.2,3.5c-0.8,1.4-1.4,2.9-1.6,4.5c-0.2,1.6-0.1,3.2,0.3,4.8c0.4,1.6,1.2,3,2.2,4.3c2,2.6,5,4.2,8.2,4.7
	c3.2,0.4,6.5-0.4,9.1-2.3l11-8.1L79.2,39.4L79.2,39.4z M45.2,33.7l18.2-13.3h3.8c0.3,0,0.7,0,1,0h8.7c9.8,0,18.8,5.2,23.4,13.5
	c3.1,5.6,3.9,12.1,2.3,18.2l0,0.1L83.1,33.4c-0.7-0.7-1.5-1-2.5-1H65.9c-0.7,0-1.5,0.2-2.1,0.7l-12,8.8c-1.2,0.8-2.6,1.2-4.1,1
	c-1.4-0.2-2.7-0.9-3.6-2.1c-0.4-0.5-0.7-1.1-0.9-1.8c-0.2-0.6-0.2-1.3-0.1-2c0.1-0.7,0.3-1.3,0.7-1.9C44.2,34.6,44.6,34.1,45.2,33.7
	z M48.3,94L48.3,94l5.5-5.3l0.1-0.1c0.8-0.7,1.9-1.2,3-1.1c1.1,0,2.2,0.4,3,1.2c0.4,0.4,0.7,0.8,0.9,1.3c0.2,0.5,0.3,1,0.3,1.6
	c0,0.5-0.1,1.1-0.3,1.6c-0.2,0.5-0.5,1-0.9,1.3l-5.5,5.3c-0.8,0.8-1.9,1.2-3,1.2c-1.1,0-2.2-0.4-3-1.2c-0.4-0.4-0.7-0.8-0.9-1.3
	c-0.2-0.5-0.3-1-0.3-1.6c0-0.5,0.1-1.1,0.3-1.6C47.6,94.9,47.9,94.4,48.3,94z M48.8,83.8L48.8,83.8l-5.5,5.3l-0.1,0.1
	c-0.8,0.7-1.9,1.2-3,1.1c-1.1,0-2.2-0.4-3-1.2c-0.4-0.4-0.7-0.8-0.9-1.3c-0.2-0.5-0.3-1-0.3-1.6c0-0.5,0.1-1.1,0.3-1.6
	c0.2-0.5,0.5-1,0.9-1.3l0,0l5.5-5.3l0,0c0.8-0.8,1.9-1.2,3-1.2c1.1,0,2.2,0.4,3,1.2c0.4,0.4,0.7,0.8,0.9,1.3c0.2,0.5,0.3,1,0.3,1.6
	c0,0.5-0.1,1.1-0.3,1.6C49.5,83,49.2,83.4,48.8,83.8z M37.6,73.1l-5.5,5.3l0,0c-0.8,0.8-1.9,1.2-3,1.2c-1.1,0-2.2-0.4-3-1.2
	c-0.4-0.4-0.7-0.8-0.9-1.3c-0.2-0.5-0.3-1-0.3-1.6c0-0.5,0.1-1.1,0.3-1.6c0.2-0.5,0.5-1,0.9-1.3l5.5-5.3c0.8-0.8,1.9-1.2,3-1.2
	c1.1,0,2.2,0.4,3,1.2c0.4,0.4,0.7,0.8,0.9,1.3c0.2,0.5,0.3,1,0.3,1.6c0,0.5-0.1,1.1-0.3,1.6C38.4,72.3,38.1,72.7,37.6,73.1
	L37.6,73.1z M24.3,64.6l-5.5,5.3c-0.8,0.8-1.9,1.2-3,1.2c-1.1,0-2.2-0.4-3-1.2c-0.4-0.4-0.7-0.8-0.9-1.3c-0.2-0.5-0.3-1-0.3-1.6
	c0-0.5,0.1-1.1,0.3-1.6c0.2-0.5,0.5-1,0.9-1.3l5.5-5.3c0.8-0.8,1.9-1.2,3-1.2c1.1,0,2.2,0.4,3,1.2c0.4,0.4,0.7,0.8,0.9,1.3
	c0.2,0.5,0.3,1,0.3,1.6c0,0.5-0.1,1.1-0.3,1.6C25,63.8,24.7,64.2,24.3,64.6z"/>
</svg>
