<?xml version="1.0" encoding="utf-8"?>
<!-- Generator: Adobe Illustrator 26.0.0, SVG Export Plug-In . SVG Version: 6.00 Build 0)  -->
<svg version="1.1" id="Capa_1" xmlns="http://www.w3.org/2000/svg" xmlns:xlink="http://www.w3.org/1999/xlink" x="0px" y="0px"
	 viewBox="0 0 41 41" style="enable-background:new 0 0 41 41;" xml:space="preserve">
<style type="text/css">
	.st0{fill-rule:evenodd;clip-rule:evenodd;}
</style>
<path class="st0" d="M20.5,6.1c-8.3,0-15,6.7-15,15s6.7,15,15,15c8.3,0,15-6.7,15-15S28.8,6.1,20.5,6.1z M2.9,21.1
	c0-9.7,7.9-17.6,17.6-17.6c9.7,0,17.6,7.9,17.6,17.6c0,9.7-7.9,17.6-17.6,17.6C10.8,38.7,2.9,30.8,2.9,21.1z"/>
<path class="st0" d="M15,23.6c-0.4-0.6-1.3-0.7-1.8-0.3c-0.6,0.4-0.7,1.3-0.3,1.8l1-0.8c-1,0.8-1,0.8-1,0.8l0,0l0,0l0,0l0,0
	c0,0,0,0,0,0c0,0,0.1,0.1,0.1,0.1c0.1,0.1,0.2,0.3,0.4,0.4c0.3,0.4,0.8,0.8,1.5,1.3c1.3,0.9,3.2,1.9,5.6,1.9s4.3-1,5.6-1.9
	c0.6-0.5,1.1-0.9,1.5-1.3c0.2-0.2,0.3-0.3,0.4-0.4c0-0.1,0.1-0.1,0.1-0.1c0,0,0,0,0,0l0,0l0,0l0,0l0,0c0,0,0,0-1-0.8l1,0.8
	c0.4-0.6,0.3-1.4-0.3-1.8c-0.6-0.4-1.4-0.3-1.8,0.3l0,0l0,0l0,0l0,0c0,0,0,0-0.1,0.1c-0.1,0.1-0.2,0.2-0.3,0.3
	c-0.3,0.3-0.6,0.6-1.1,1c-1,0.7-2.3,1.4-4,1.4c-1.7,0-3.1-0.7-4-1.4c-0.5-0.4-0.9-0.7-1.1-1C15.2,23.8,15.1,23.7,15,23.6
	C15.1,23.6,15,23.6,15,23.6L15,23.6 M15,23.6L15,23.6L15,23.6z"/>
<path class="st0" d="M14.3,16.2c0-0.7,0.6-1.3,1.3-1.3h0c0.7,0,1.3,0.6,1.3,1.3c0,0.7-0.6,1.3-1.3,1.3h0
	C14.9,17.5,14.3,16.9,14.3,16.2z"/>
<path class="st0" d="M24.1,16.2c0-0.7,0.6-1.3,1.3-1.3h0c0.7,0,1.3,0.6,1.3,1.3c0,0.7-0.6,1.3-1.3,1.3h0
	C24.7,17.5,24.1,16.9,24.1,16.2z"/>
</svg>
