<?xml version="1.0" encoding="utf-8"?>
<!-- Generator: Adobe Illustrator 26.0.0, SVG Export Plug-In . SVG Version: 6.00 Build 0)  -->
<svg version="1.1" id="Capa_1" xmlns="http://www.w3.org/2000/svg" xmlns:xlink="http://www.w3.org/1999/xlink" x="0px" y="0px"
	 viewBox="0 0 24 24" style="enable-background:new 0 0 24 24;" xml:space="preserve">
<style type="text/css">
	.st0{opacity:0.3;}
	.st1{fill:#152930;}
</style>
<g class="st0">
	<g>
		<path class="st1" d="M12,20c-4.5,0-8.2-4-10.1-6.4c-0.4-0.5-0.6-1.1-0.6-1.6c0-0.6,0.2-1.2,0.6-1.7C3.8,8,7.5,4,12,4
			c4.5,0,8.2,4,10.1,6.4c0,0,0,0,0,0c0.8,1,0.8,2.3,0,3.3C20.2,16,16.5,20,12,20z M7.7,16.5C9,17.4,10.5,18,12,18
			c3.8,0,7.2-3.9,8.5-5.6c0.2-0.3,0.2-0.6,0-0.9c-0.5-0.6-1.3-1.6-2.2-2.5L7.7,16.5z M12,6c-3.8,0-7.2,3.9-8.5,5.6
			c-0.1,0.1-0.1,0.3-0.1,0.4c0,0.2,0.1,0.3,0.1,0.4c0.5,0.7,1.4,1.8,2.6,2.8l10.5-7.5C15.3,6.8,13.7,6,12,6z"/>
	</g>
</g>
</svg>
