<svg width="24" height="24" viewBox="0 0 24 24" fill="none" xmlns="http://www.w3.org/2000/svg">
<path d="M3.22875 9.45468L10.7241 2.37937L10.7391 2.36531C11.0835 2.05008 11.5335 1.87524 12.0005 1.87524C12.4674 1.87524 12.9174 2.05008 13.2619 2.36531L13.2778 2.37937L20.7713 9.45468C20.9613 9.6305 21.113 9.84364 21.2169 10.0808C21.3208 10.3179 21.3746 10.5739 21.375 10.8328V19.5C21.375 19.9973 21.1775 20.4742 20.8258 20.8258C20.4742 21.1775 19.9973 21.375 19.5 21.375H15C14.5027 21.375 14.0258 21.1775 13.6742 20.8258C13.3225 20.4742 13.125 19.9973 13.125 19.5V15.375H10.875V19.5C10.875 19.9973 10.6775 20.4742 10.3258 20.8258C9.97419 21.1775 9.49728 21.375 9 21.375H4.5C4.00272 21.375 3.52581 21.1775 3.17418 20.8258C2.82254 20.4742 2.625 19.9973 2.625 19.5V10.8328C2.62541 10.5739 2.67924 10.3179 2.78313 10.0808C2.88702 9.84364 3.03872 9.6305 3.22875 9.45468ZM4.875 19.125H8.625V15C8.625 14.7538 8.6735 14.5099 8.76773 14.2825C8.86195 14.055 9.00006 13.8483 9.17418 13.6742C9.34828 13.5001 9.55498 13.362 9.78247 13.2677C10.01 13.1735 10.2538 13.125 10.5 13.125H13.5C13.9973 13.125 14.4742 13.3225 14.8258 13.6742C15.1775 14.0258 15.375 14.5027 15.375 15V19.125H19.125V10.995L12 4.26843L4.875 10.995V19.125Z" fill="url(#paint0_linear_863_12429)"/>
<defs>
<linearGradient id="paint0_linear_863_12429" x1="12" y1="1.87524" x2="12" y2="21.375" gradientUnits="userSpaceOnUse">
<stop stop-color="#2AC870"/>
<stop offset="1" stop-color="#29C1AF"/>
</linearGradient>
</defs>
</svg>
