<?xml version="1.0" encoding="utf-8"?>
<!-- Generator: Adobe Illustrator 26.0.0, SVG Export Plug-In . SVG Version: 6.00 Build 0)  -->
<svg version="1.1" id="Capa_1" xmlns="http://www.w3.org/2000/svg" xmlns:xlink="http://www.w3.org/1999/xlink" x="0px" y="0px"
	 viewBox="0 0 15 14" style="enable-background:new 0 0 15 14;" xml:space="preserve">
<style type="text/css">
	.st0{fill:#2AC870;}
</style>
<path class="st0" d="M5.8,12.3c-0.9,0-1.8-0.4-2.5-1c-0.3-0.3-0.6-0.7-0.8-1.1C2.3,9.7,2.2,9.2,2.2,8.7c0-0.5,0.1-0.9,0.3-1.3
	C2.7,7,2.9,6.6,3.3,6.3L3.6,6C3.9,5.7,4.2,5.8,4.5,6c0.2,0.2,0.2,0.6-0.1,0.8L4.1,7.1C3.9,7.3,3.7,7.6,3.6,7.9
	C3.5,8.1,3.4,8.4,3.4,8.7s0.1,0.6,0.2,0.9c0.1,0.3,0.3,0.5,0.5,0.8c0.9,0.9,2.4,0.9,3.3,0l0.2-0.2C7.8,9.9,8.2,9.8,8.4,10
	c0.3,0.2,0.3,0.6,0.1,0.8l-0.2,0.3C7.6,11.9,6.7,12.3,5.8,12.3z M5.8,9.3c-0.2,0-0.3-0.1-0.4-0.2c-0.2-0.2-0.2-0.6,0-0.8l3.5-3.5
	c0.2-0.2,0.6-0.2,0.8,0s0.2,0.6,0,0.8L6.2,9.2C6.1,9.3,5.9,9.3,5.8,9.3z M11,8.2c-0.2,0-0.3-0.1-0.5-0.2c-0.2-0.3-0.2-0.6,0.1-0.8
	l0.3-0.3c0.4-0.4,0.6-1,0.6-1.6c0-0.6-0.2-1.2-0.7-1.6c-0.4-0.4-1-0.7-1.6-0.7h0C8.6,2.9,8,3.2,7.6,3.6L7.4,3.9
	C7.2,4.1,6.8,4.2,6.5,4C6.3,3.7,6.2,3.4,6.5,3.1l0.3-0.3c0.7-0.7,1.6-1.1,2.5-1.1c0,0,0,0,0,0c0.9,0,1.8,0.4,2.5,1
	c0.7,0.7,1,1.5,1,2.5c0,0.9-0.4,1.8-1,2.5L11.4,8C11.3,8.1,11.1,8.2,11,8.2z"/>
</svg>
