<svg width="32" height="32" viewBox="0 0 32 32" fill="none" xmlns="http://www.w3.org/2000/svg">
<path fill-rule="evenodd" clip-rule="evenodd" d="M26.791 4.67914C26.0139 4.03355 25.0401 3.75 24 3.75H8C7.0031 3.75 6.03453 4.0114 5.24858 4.64254C4.46045 5.27543 3.97551 6.18426 3.77385 7.25656L1.77681 16.7425C1.75899 16.8272 1.75 16.9135 1.75 17V24L1.75001 24.0036C1.75327 25.1288 2.2017 26.207 2.99734 27.0027C3.79299 27.7983 4.87117 28.2467 5.99637 28.25L6 28.25H26L26.0036 28.25C27.1288 28.2467 28.207 27.7983 29.0027 27.0027C29.7983 26.207 30.2467 25.1288 30.25 24.0036L30.25 24V17C30.25 16.9135 30.241 16.8272 30.2232 16.7425L28.2253 7.25256C28.0257 6.22545 27.5645 5.32174 26.791 4.67914ZM25.1934 6.60211C25.4327 6.80089 25.6584 7.14287 25.7725 7.73606L25.7768 7.75751L27.75 17.1302V23.9979C27.7482 24.462 27.5631 24.9067 27.2349 25.2349C26.9067 25.5631 26.4621 25.7482 25.9981 25.75H6.00194C5.53787 25.7482 5.09329 25.5631 4.76511 25.2349C4.43693 24.9067 4.25179 24.4621 4.25 23.9981V17.1301L6.22319 7.75751C6.22528 7.74757 6.22725 7.7376 6.2291 7.72761C6.34175 7.11929 6.57467 6.78395 6.81392 6.59183C7.05922 6.39485 7.4344 6.25 8 6.25H24C24.5849 6.25 24.9549 6.40395 25.1934 6.60211Z" fill="#2AC870"/>
<path fill-rule="evenodd" clip-rule="evenodd" d="M30.25 17C30.25 16.3096 29.6904 15.75 29 15.75H20C19.3096 15.75 18.75 16.3096 18.75 17C18.75 17.7293 18.4603 18.4288 17.9445 18.9445C17.4288 19.4603 16.7293 19.75 16 19.75C15.2707 19.75 14.5712 19.4603 14.0555 18.9445C13.5397 18.4288 13.25 17.7293 13.25 17C13.25 16.3096 12.6904 15.75 12 15.75H3C2.30964 15.75 1.75 16.3096 1.75 17C1.75 17.6904 2.30964 18.25 3 18.25H10.901C11.1276 19.1745 11.6035 20.0281 12.2877 20.7123C13.2723 21.6969 14.6076 22.25 16 22.25C17.3924 22.25 18.7277 21.6969 19.7123 20.7123C20.3965 20.0281 20.8724 19.1745 21.099 18.25H29C29.6904 18.25 30.25 17.6904 30.25 17Z" fill="#2AC870"/>
</svg>
