<svg width="32" height="32" viewBox="0 0 32 32" fill="none" xmlns="http://www.w3.org/2000/svg">
<path fill-rule="evenodd" clip-rule="evenodd" d="M20 17.3333C19.2928 17.3333 18.6145 17.6143 18.1144 18.1144C17.6143 18.6145 17.3333 19.2928 17.3333 20V25.3333C17.3333 26.0406 17.6143 26.7189 18.1144 27.219C18.6145 27.719 19.2928 28 20 28H25.3333C26.0406 28 26.7189 27.719 27.219 27.219C27.719 26.7189 28 26.0406 28 25.3333V20C28 19.2928 27.719 18.6145 27.219 18.1144C26.7189 17.6143 26.0406 17.3333 25.3333 17.3333H20ZM6.66667 17.3333C5.9939 17.3331 5.34591 17.5872 4.8526 18.0447C4.35929 18.5021 4.05712 19.1291 4.00666 19.8L4 20V25.3333C3.99979 26.0061 4.25387 26.6541 4.71133 27.1474C5.16878 27.6407 5.79579 27.9429 6.46667 27.9933L6.66667 28H12C12.6728 28.0002 13.3208 27.7461 13.8141 27.2887C14.3074 26.8312 14.6095 26.2042 14.66 25.5333L14.6667 25.3333V20C14.6669 19.3272 14.4128 18.6792 13.9553 18.1859C13.4979 17.6926 12.8709 17.3905 12.2 17.34L12 17.3333H6.66667ZM20 20H25.3333V25.3333H20V20ZM6.66667 20H12V25.3333H6.66667V20ZM6.66667 4C5.9939 3.99979 5.34591 4.25388 4.8526 4.71133C4.35929 5.16878 4.05712 5.79579 4.00666 6.46667L4 6.66667V12C3.99979 12.6728 4.25387 13.3208 4.71133 13.8141C5.16878 14.3074 5.79579 14.6095 6.46667 14.66L6.66667 14.6667H12C12.6728 14.6669 13.3208 14.4128 13.8141 13.9553C14.3074 13.4979 14.6095 12.8709 14.66 12.2L14.6667 12V6.66667C14.6669 5.9939 14.4128 5.34591 13.9553 4.8526C13.4979 4.35929 12.8709 4.05712 12.2 4.00667L12 4H6.66667ZM20 4C19.3272 3.99979 18.6792 4.25388 18.1859 4.71133C17.6926 5.16878 17.3905 5.79579 17.34 6.46667L17.3333 6.66667V12C17.3331 12.6728 17.5872 13.3208 18.0447 13.8141C18.5021 14.3074 19.1291 14.6095 19.8 14.66L20 14.6667H25.3333C26.0061 14.6669 26.6541 14.4128 27.1474 13.9553C27.6407 13.4979 27.9429 12.8709 27.9933 12.2L28 12V6.66667C28.0002 5.9939 27.7461 5.34591 27.2887 4.8526C26.8312 4.35929 26.2042 4.05712 25.5333 4.00667L25.3333 4H20ZM6.66667 6.66667H12V12H6.66667V6.66667ZM20 6.66667H25.3333V12H20V6.66667Z" fill="#152930" fill-opacity="0.4"/>
</svg>
