<svg width="34" height="34" viewBox="0 0 34 34" fill="none" xmlns="http://www.w3.org/2000/svg">
<g clip-path="url(#clip0_1649_1107)">
<path fill-rule="evenodd" clip-rule="evenodd" d="M5.66797 7.08337C5.66797 5.9562 6.11574 4.8752 6.91277 4.07817C7.70979 3.28114 8.7908 2.83337 9.91797 2.83337H24.0846C25.2118 2.83337 26.2928 3.28114 27.0898 4.07817C27.8869 4.8752 28.3346 5.9562 28.3346 7.08337V29.75C28.3345 30.0169 28.259 30.2782 28.1168 30.504C27.9746 30.7298 27.7716 30.9109 27.531 31.0263C27.2905 31.1418 27.0222 31.187 26.7571 31.1567C26.492 31.1264 26.2408 31.0218 26.0326 30.855L23.3763 28.73L20.7201 30.855C20.4479 31.0731 20.105 31.183 19.7568 31.164C19.4086 31.1449 19.0797 30.9981 18.8331 30.7516L17.0013 28.9199L15.1696 30.7516C14.9231 30.9983 14.5943 31.1453 14.2461 31.1647C13.8979 31.184 13.5549 31.0743 13.2826 30.8565L10.6263 28.73L7.97005 30.855C7.76176 31.0218 7.51061 31.1264 7.24551 31.1567C6.98041 31.187 6.71215 31.1418 6.4716 31.0263C6.23105 30.9109 6.028 30.7298 5.88583 30.504C5.74365 30.2782 5.66814 30.0169 5.66797 29.75V7.08337ZM9.91797 5.66671C9.54225 5.66671 9.18191 5.81596 8.91623 6.08164C8.65056 6.34732 8.5013 6.70765 8.5013 7.08337V26.8034L9.74089 25.8117C9.99215 25.6105 10.3044 25.5009 10.6263 25.5009C10.9482 25.5009 11.2605 25.6105 11.5117 25.8117L14.0617 27.8517L15.9997 25.9151C16.2654 25.6495 16.6257 25.5003 17.0013 25.5003C17.377 25.5003 17.7372 25.6495 18.0029 25.9151L19.9395 27.8517L22.4909 25.8117C22.7421 25.6105 23.0544 25.5009 23.3763 25.5009C23.6982 25.5009 24.0105 25.6105 24.2617 25.8117L25.5013 26.8034V7.08337C25.5013 6.70765 25.352 6.34732 25.0864 6.08164C24.8207 5.81596 24.4604 5.66671 24.0846 5.66671H9.91797ZM11.3346 12.75C11.3346 12.3743 11.4839 12.014 11.7496 11.7483C12.0152 11.4826 12.3756 11.3334 12.7513 11.3334H21.2513C21.627 11.3334 21.9874 11.4826 22.253 11.7483C22.5187 12.014 22.668 12.3743 22.668 12.75C22.668 13.1258 22.5187 13.4861 22.253 13.7518C21.9874 14.0175 21.627 14.1667 21.2513 14.1667H12.7513C12.3756 14.1667 12.0152 14.0175 11.7496 13.7518C11.4839 13.4861 11.3346 13.1258 11.3346 12.75ZM12.7513 17C12.3756 17 12.0152 17.1493 11.7496 17.415C11.4839 17.6807 11.3346 18.041 11.3346 18.4167C11.3346 18.7924 11.4839 19.1528 11.7496 19.4184C12.0152 19.6841 12.3756 19.8334 12.7513 19.8334H17.0013C17.377 19.8334 17.7374 19.6841 18.003 19.4184C18.2687 19.1528 18.418 18.7924 18.418 18.4167C18.418 18.041 18.2687 17.6807 18.003 17.415C17.7374 17.1493 17.377 17 17.0013 17H12.7513Z" fill="white"/>
</g>
<defs>
<clipPath id="clip0_1649_1107">
<rect width="34" height="34" fill="white"/>
</clipPath>
</defs>
</svg>
