<svg width="24" height="24" viewBox="0 0 24 24" fill="none" xmlns="http://www.w3.org/2000/svg">
<path fill-rule="evenodd" clip-rule="evenodd" d="M9.88218 2.2068C10.1319 2.17749 10.3851 2.19805 10.6268 2.26729C10.8686 2.33654 11.0942 2.45309 11.2906 2.6102C11.4869 2.7673 11.6502 2.96182 11.7708 3.18249C11.8914 3.40316 11.9671 3.64558 11.9933 3.89569C11.9969 3.93033 11.9987 3.96515 11.9987 3.99998V7.99998C11.9987 8.45532 11.6911 8.85317 11.2505 8.96779C10.7219 9.10524 10.2391 9.37988 9.85084 9.76389C9.46257 10.1479 9.18263 10.6277 9.03935 11.1546C8.89607 11.6816 8.89454 12.2371 9.03491 12.7648C9.17528 13.2926 9.45257 13.7739 9.83872 14.16C10.2249 14.5462 10.7062 14.8234 11.2339 14.9638C11.7617 15.1042 12.3171 15.1027 12.8441 14.9594C13.3711 14.8161 13.8508 14.5362 14.2348 14.1479C14.6188 13.7596 14.8935 13.2768 15.0309 12.7483C15.1456 12.3076 15.5434 12 15.9987 12H19.7987C20.3292 12 20.8379 12.2107 21.213 12.5858C21.588 12.9608 21.7987 13.4696 21.7987 14C21.7987 14.076 21.7901 14.1518 21.7729 14.2258C21.37 15.9639 20.5094 17.5626 19.2803 18.856C18.0513 20.1493 16.4986 21.0903 14.7833 21.5813C13.068 22.0724 11.2525 22.0955 9.52526 21.6484C7.79799 21.2013 6.2218 20.3002 4.96018 19.0385C3.69856 17.7769 2.79746 16.2007 2.35034 14.4735C1.90322 12.7462 1.92637 10.9308 2.41738 9.21546C2.9084 7.50015 3.8494 5.94745 5.14277 4.71841C6.43615 3.48937 8.0348 2.62875 9.77291 2.22582C9.80895 2.21746 9.84543 2.21111 9.88218 2.2068ZM9.99874 4.22997C8.69572 4.57225 7.4989 5.23846 6.52047 6.16823C5.48577 7.15146 4.73297 8.39362 4.34016 9.76586C3.94735 11.1381 3.92883 12.5905 4.28652 13.9723C4.64422 15.3541 5.3651 16.615 6.3744 17.6243C7.38369 18.6336 8.64464 19.3545 10.0265 19.7122C11.4083 20.0699 12.8606 20.0514 14.2329 19.6586C15.6051 19.2658 16.8473 18.513 17.8305 17.4783C18.7603 16.4998 19.4265 15.303 19.7688 14H16.7085C16.458 14.5766 16.1021 15.1041 15.6568 15.5543C15.0251 16.193 14.2358 16.6536 13.3688 16.8893C12.5019 17.125 11.5881 17.1275 10.7198 16.8966C9.8516 16.6657 9.05978 16.2095 8.42451 15.5742C7.78923 14.9389 7.33304 14.1471 7.10211 13.2789C6.87118 12.4107 6.8737 11.4968 7.10941 10.6299C7.34513 9.76295 7.80568 8.97366 8.44445 8.3419C8.89466 7.89663 9.42214 7.54075 9.99874 7.29027V4.22997Z" fill="#2AC870"/>
<path fill-rule="evenodd" clip-rule="evenodd" d="M14.4221 2.68388C14.6869 2.49641 15.0261 2.44903 15.3321 2.55677C16.7429 3.05353 18.0243 3.86044 19.0819 4.91806C20.1396 5.97568 20.9465 7.25708 21.4432 8.66788C21.551 8.97388 21.5036 9.31312 21.3161 9.57788C21.1287 9.84264 20.8244 10 20.5 10H16C15.7074 10 15.4295 9.87187 15.2395 9.64937C14.967 9.33022 14.6698 9.03301 14.3506 8.76048C14.1281 8.57049 14 8.29259 14 8.00001V3.50001C14 3.1756 14.1574 2.87135 14.4221 2.68388ZM16 5.05465V7.5535C16.1535 7.6976 16.3024 7.84651 16.4465 8.00001H18.9454C18.5957 7.39218 18.1666 6.83111 17.6677 6.33227C17.1689 5.83343 16.6078 5.40431 16 5.05465Z" fill="#2AC870"/>
</svg>
