<svg width="50" height="50" viewBox="0 0 50 50" fill="none" xmlns="http://www.w3.org/2000/svg">
<path d="M25 29.6875C23.1952 29.6891 21.418 29.2434 19.8276 28.3902C18.2371 27.537 16.8829 26.303 15.8859 24.7985L18.4891 23.0688C19.2017 24.1434 20.1691 25.0248 21.3052 25.6346C22.4413 26.2444 23.7106 26.5636 25 26.5636C26.2894 26.5636 27.5587 26.2444 28.6948 25.6346C29.8309 25.0248 30.7983 24.1434 31.5109 23.0688L34.1141 24.7985C33.1171 26.303 31.7629 27.537 30.1724 28.3902C28.582 29.2434 26.8049 29.6891 25 29.6875ZM31.25 12.5C30.6319 12.5 30.0277 12.6833 29.5138 13.0267C28.9999 13.3701 28.5994 13.8581 28.3629 14.4292C28.1264 15.0002 28.0645 15.6285 28.185 16.2347C28.3056 16.8409 28.6033 17.3977 29.0403 17.8347C29.4773 18.2718 30.0342 18.5694 30.6403 18.69C31.2465 18.8106 31.8749 18.7487 32.4459 18.5122C33.0169 18.2756 33.505 17.8751 33.8483 17.3612C34.1917 16.8473 34.375 16.2431 34.375 15.625C34.3792 15.2135 34.3012 14.8053 34.1456 14.4242C33.9901 14.0432 33.76 13.697 33.469 13.406C33.178 13.115 32.8318 12.885 32.4508 12.7294C32.0698 12.5738 31.6615 12.4959 31.25 12.5ZM18.75 12.5C18.1319 12.5 17.5277 12.6833 17.0138 13.0267C16.4999 13.3701 16.0994 13.8581 15.8629 14.4292C15.6264 15.0002 15.5645 15.6285 15.685 16.2347C15.8056 16.8409 16.1033 17.3977 16.5403 17.8347C16.9773 18.2718 17.5342 18.5694 18.1403 18.69C18.7465 18.8106 19.3749 18.7487 19.9459 18.5122C20.5169 18.2756 21.005 17.8751 21.3483 17.3612C21.6917 16.8473 21.875 16.2431 21.875 15.625C21.8792 15.2135 21.8012 14.8053 21.6456 14.4242C21.4901 14.0432 21.26 13.697 20.969 13.406C20.678 13.115 20.3318 12.885 19.9508 12.7294C19.5698 12.5738 19.1615 12.4959 18.75 12.5Z" fill="#2AC870"/>
<path d="M27.7125 46.875L25 45.3125L31.25 34.375H40.625C41.0356 34.3756 41.4422 34.2952 41.8216 34.1384C42.201 33.9816 42.5458 33.7514 42.8361 33.4611C43.1264 33.1708 43.3566 32.826 43.5134 32.4466C43.6702 32.0672 43.7506 31.6606 43.75 31.25V9.375C43.7506 8.96445 43.6702 8.55781 43.5134 8.17838C43.3566 7.79896 43.1264 7.45422 42.8361 7.16392C42.5458 6.87361 42.201 6.64345 41.8216 6.48662C41.4422 6.32979 41.0356 6.24938 40.625 6.25H9.375C8.96445 6.24938 8.55781 6.32979 8.17838 6.48662C7.79896 6.64345 7.45422 6.87361 7.16392 7.16392C6.87361 7.45422 6.64345 7.79896 6.48662 8.17838C6.32979 8.55781 6.24938 8.96445 6.25 9.375V31.25C6.24938 31.6606 6.32979 32.0672 6.48662 32.4466C6.64345 32.826 6.87361 33.1708 7.16392 33.4611C7.45422 33.7514 7.79896 33.9816 8.17838 34.1384C8.55781 34.2952 8.96445 34.3756 9.375 34.375H23.4375V37.5H9.375C7.7174 37.5 6.12769 36.8415 4.95558 35.6694C3.78348 34.4973 3.125 32.9076 3.125 31.25V9.375C3.12479 8.55418 3.28632 7.74136 3.60033 6.98299C3.91435 6.22461 4.37472 5.53553 4.95513 4.95513C5.53553 4.37472 6.22461 3.91435 6.98299 3.60033C7.74136 3.28632 8.55418 3.12479 9.375 3.125H40.625C41.4458 3.12479 42.2586 3.28632 43.017 3.60033C43.7754 3.91435 44.4645 4.37472 45.0449 4.95513C45.6253 5.53553 46.0856 6.22461 46.3997 6.98299C46.7137 7.74136 46.8752 8.55418 46.875 9.375V31.25C46.875 32.9076 46.2165 34.4973 45.0444 35.6694C43.8723 36.8415 42.2826 37.5 40.625 37.5H33.0703L27.7125 46.875Z" fill="#2AC870"/>
</svg>
