<?xml version="1.0" encoding="utf-8"?>
<!-- Generator: Adobe Illustrator 26.0.0, SVG Export Plug-In . SVG Version: 6.00 Build 0)  -->
<svg version="1.1" id="Capa_1" xmlns="http://www.w3.org/2000/svg" xmlns:xlink="http://www.w3.org/1999/xlink" x="0px" y="0px"
	 viewBox="0 0 28 28" style="enable-background:new 0 0 28 28;" xml:space="preserve">
<g>
	<path d="M1.5,27.5c-0.3,0-0.5-0.1-0.7-0.3c-0.3-0.3-0.4-0.6-0.3-1l1.9-6.9c0-0.2,0.1-0.3,0.3-0.4L19.5,2l0,0c0.4-0.4,0.9-0.8,1.5-1
		c1.1-0.5,2.4-0.5,3.5,0c0.6,0.2,1,0.6,1.5,1c0.4,0.4,0.8,0.9,1,1.5c0.2,0.6,0.3,1.1,0.3,1.7S27.2,6.4,26.9,7c-0.2,0.6-0.6,1-1,1.5
		L9.1,25.3c-0.1,0.1-0.3,0.2-0.4,0.3l-6.9,1.9C1.7,27.5,1.6,27.5,1.5,27.5z M4.3,20.1l-1.3,4.9l4.9-1.3L24.5,7
		c0.2-0.2,0.4-0.5,0.5-0.8c0.1-0.3,0.2-0.6,0.2-1s-0.1-0.7-0.2-1C25,4,24.8,3.7,24.5,3.5C24.3,3.2,24,3,23.7,2.9
		c-0.6-0.3-1.3-0.3-1.9,0C21.5,3,21.2,3.2,21,3.5L4.3,20.1z"/>
</g>
</svg>
