<svg width="15" height="14" viewBox="0 0 15 14" fill="none" xmlns="http://www.w3.org/2000/svg">
<path d="M12.3125 2.1875H2.6875C2.45544 2.1875 2.23288 2.27969 2.06878 2.44378C1.90469 2.60788 1.8125 2.83044 1.8125 3.0625V10.9375C1.8125 11.1696 1.90469 11.3921 2.06878 11.5562C2.23288 11.7203 2.45544 11.8125 2.6875 11.8125H12.3125C12.5446 11.8125 12.7671 11.7203 12.9312 11.5562C13.0953 11.3921 13.1875 11.1696 13.1875 10.9375V3.0625C13.1875 2.83044 13.0953 2.60788 12.9312 2.44378C12.7671 2.27969 12.5446 2.1875 12.3125 2.1875ZM12.3125 3.0625V8.68164L10.8868 7.25648C10.8055 7.17521 10.7091 7.11074 10.6029 7.06676C10.4967 7.02277 10.3829 7.00013 10.268 7.00013C10.1531 7.00013 10.0393 7.02277 9.93311 7.06676C9.82694 7.11074 9.73047 7.17521 9.64922 7.25648L8.55547 8.35023L6.14922 5.94398C5.98514 5.78001 5.76267 5.68791 5.5307 5.68791C5.29874 5.68791 5.07627 5.78001 4.91219 5.94398L2.6875 8.16867V3.0625H12.3125ZM2.6875 9.40625L5.53125 6.5625L9.90625 10.9375H2.6875V9.40625ZM12.3125 10.9375H11.1438L9.17508 8.96875L10.2688 7.875L12.3125 9.91922V10.9375ZM8.375 5.46875C8.375 5.33896 8.41349 5.21208 8.4856 5.10416C8.55771 4.99624 8.6602 4.91212 8.78011 4.86245C8.90003 4.81278 9.03198 4.79979 9.15928 4.82511C9.28658 4.85043 9.40351 4.91293 9.49529 5.00471C9.58707 5.09649 9.64957 5.21342 9.67489 5.34072C9.70021 5.46802 9.68722 5.59997 9.63755 5.71989C9.58788 5.8398 9.50376 5.94229 9.39584 6.0144C9.28792 6.08651 9.16104 6.125 9.03125 6.125C8.8572 6.125 8.69028 6.05586 8.56721 5.93279C8.44414 5.80972 8.375 5.6428 8.375 5.46875Z" fill="#2AC870"/>
</svg>
