<svg width="32" height="32" viewBox="0 0 32 32" fill="none" xmlns="http://www.w3.org/2000/svg">
<path d="M29 30.4667V22.6298C29 21.7677 28.6932 21.0306 28.0796 20.4184C27.466 19.8062 26.7283 19.5001 25.8666 19.5001H6.13336C5.27169 19.5001 4.53405 19.8069 3.92045 20.4205C3.30682 21.0341 3 21.7717 3 22.6334V30.4667H29ZM20.95 17.1C23.1772 17.1 25.0756 16.3151 26.6453 14.7454C28.2151 13.1756 29 11.2772 29 9.05002C29 6.82285 28.2151 4.9244 26.6453 3.35465C25.0756 1.78489 23.1772 1 20.95 1H11.05C8.82285 1 6.92439 1.78489 5.35465 3.35465C3.78489 4.9244 3 6.82285 3 9.05002C3 11.2772 3.78489 13.1756 5.35465 14.7454C6.92439 16.3151 8.82285 17.1 11.05 17.1H20.95ZM26.4 27.8667H5.59997V22.6334C5.59997 22.4778 5.64997 22.35 5.74999 22.25C5.85 22.15 5.97779 22.1 6.13336 22.1H25.8666C26.0222 22.1 26.15 22.15 26.25 22.25C26.35 22.35 26.4 22.4778 26.4 22.6334V27.8667ZM20.95 14.5H11.05C9.52777 14.5 8.23887 13.9723 7.18333 12.9167C6.12775 11.8611 5.59997 10.5722 5.59997 9.05002C5.59997 7.52777 6.12775 6.23887 7.18333 5.18333C8.23887 4.12775 9.52777 3.59997 11.05 3.59997H20.95C22.4722 3.59997 23.7611 4.12775 24.8167 5.18333C25.8722 6.23887 26.4 7.52777 26.4 9.05002C26.4 10.5722 25.8722 11.8611 24.8167 12.9167C23.7611 13.9723 22.4722 14.5 20.95 14.5ZM20.9506 10.55C20.5257 10.55 20.1694 10.4063 19.8817 10.1189C19.5939 9.83154 19.45 9.47542 19.45 9.05058C19.45 8.62577 19.5937 8.26947 19.8811 7.98168C20.1685 7.69391 20.5246 7.55003 20.9494 7.55003C21.3742 7.55003 21.7305 7.69372 22.0183 7.98111C22.3061 8.2685 22.45 8.6246 22.45 9.04941C22.45 9.47425 22.3063 9.83055 22.0189 10.1183C21.7315 10.4061 21.3754 10.55 20.9506 10.55ZM11.0506 10.55C10.6258 10.55 10.2695 10.4063 9.98168 10.1189C9.69391 9.83154 9.55003 9.47542 9.55003 9.05058C9.55003 8.62577 9.69373 8.26947 9.98111 7.98168C10.2685 7.69391 10.6246 7.55003 11.0494 7.55003C11.4743 7.55003 11.8306 7.69372 12.1183 7.98111C12.4061 8.2685 12.55 8.6246 12.55 9.04941C12.55 9.47425 12.4063 9.83055 12.1189 10.1183C11.8315 10.4061 11.4754 10.55 11.0506 10.55Z" fill="#2AC870"/>
</svg>
