<svg width="24" height="25" viewBox="0 0 24 25" fill="none" xmlns="http://www.w3.org/2000/svg">
<path d="M21.7114 20.79L18.0014 17.11C19.4415 15.3144 20.1389 13.0353 19.9502 10.7413C19.7615 8.44733 18.701 6.31281 16.9869 4.77667C15.2727 3.24053 13.0352 2.41954 10.7343 2.4825C8.43341 2.54546 6.24409 3.48759 4.61651 5.11517C2.98893 6.74275 2.0468 8.93207 1.98384 11.2329C1.92088 13.5338 2.74188 15.7714 4.27801 17.4855C5.81415 19.1997 7.94867 20.2601 10.2427 20.4488C12.5367 20.6375 14.8158 19.9401 16.6114 18.5L20.2914 22.18C20.3843 22.2738 20.4949 22.3482 20.6168 22.3989C20.7387 22.4497 20.8694 22.4758 21.0014 22.4758C21.1334 22.4758 21.2641 22.4497 21.3859 22.3989C21.5078 22.3482 21.6184 22.2738 21.7114 22.18C21.8916 21.9936 21.9924 21.7444 21.9924 21.485C21.9924 21.2257 21.8916 20.9765 21.7114 20.79ZM11.0014 18.5C9.6169 18.5 8.26352 18.0895 7.11238 17.3203C5.96123 16.5511 5.06403 15.4579 4.53421 14.1788C4.0044 12.8997 3.86578 11.4923 4.13587 10.1344C4.40597 8.77653 5.07265 7.52925 6.05162 6.55028C7.03059 5.57131 8.27787 4.90463 9.63574 4.63453C10.9936 4.36443 12.4011 4.50306 13.6802 5.03287C14.9592 5.56268 16.0525 6.45989 16.8217 7.61103C17.5908 8.76218 18.0014 10.1156 18.0014 11.5C18.0014 13.3565 17.2639 15.137 15.9511 16.4498C14.6384 17.7625 12.8579 18.5 11.0014 18.5Z" fill="#2AC870"/>
</svg>
