<svg width="19" height="20" viewBox="0 0 19 20" fill="none" xmlns="http://www.w3.org/2000/svg">
<path d="M12.1174 19.9838L18.133 18.6819C18.133 18.6819 15.9618 4.00437 15.9455 3.90625C15.9293 3.80813 15.848 3.74687 15.7699 3.74687C15.6887 3.74687 14.1618 3.63313 14.1618 3.63313C14.1618 3.63313 13.0974 2.57188 12.9605 2.45813C12.9249 2.42563 12.8987 2.40937 12.8599 2.39625L12.098 19.9844L12.1174 19.9838ZM9.0968 9.42062C9.0968 9.42062 8.41992 9.06875 7.61867 9.06875C6.41117 9.06875 6.36555 9.82063 6.36555 10.0194C6.36555 11.045 9.0643 11.4481 9.0643 13.8769C9.0643 15.7875 7.86305 17.0081 6.22555 17.0081C4.26242 17.0081 3.27617 15.7875 3.27617 15.7875L3.81305 14.0494C3.81305 14.0494 4.85117 14.9381 5.7143 14.9381C6.27742 14.9381 6.52805 14.4856 6.52805 14.16C6.52805 12.8125 4.3143 12.7506 4.3143 10.5306C4.28492 8.66563 5.62305 6.84875 8.33805 6.84875C9.38617 6.84875 9.90055 7.14813 9.90055 7.14813L9.11305 9.41375L9.0968 9.42062ZM8.64742 0.69C8.75805 0.69 8.8718 0.7225 8.98242 0.80375C8.1618 1.19125 7.26367 2.17125 6.89242 4.13063C6.34555 4.30938 5.81492 4.46938 5.31992 4.6125C5.74992 3.125 6.7943 0.7 8.6468 0.7L8.64742 0.69ZM9.67617 3.1475V3.26125C9.04805 3.45312 8.3543 3.665 7.68055 3.87313C8.06805 2.39188 8.79055 1.66938 9.41867 1.39938C9.57805 1.81625 9.67617 2.37937 9.67617 3.1475ZM10.1249 1.28937C10.7012 1.34812 11.0755 2.00875 11.313 2.75125C11.023 2.84562 10.7012 2.94313 10.3493 3.05375V2.84562C10.3493 2.2175 10.268 1.70312 10.1249 1.28625V1.28937ZM12.6187 2.36312C12.5993 2.36312 12.5668 2.37937 12.5537 2.37937C12.5374 2.37937 12.313 2.44125 11.958 2.555C11.6062 1.52625 10.978 0.579375 9.86805 0.579375H9.77055C9.4518 0.175625 9.06117 0 8.72555 0C6.13742 0 4.90055 3.2325 4.51305 4.87313C3.5168 5.17562 2.7943 5.40062 2.71305 5.43313C2.14992 5.61188 2.13367 5.62875 2.06867 6.15875C2.0068 6.54313 0.544922 17.8775 0.544922 17.8775L11.8437 20L12.6187 2.36312Z" fill="#EDF2F5"/>
</svg>
