<?xml version="1.0" encoding="utf-8"?>
<!-- Generator: Adobe Illustrator 26.0.0, SVG Export Plug-In . SVG Version: 6.00 Build 0)  -->
<svg version="1.1" id="Capa_1" xmlns="http://www.w3.org/2000/svg" xmlns:xlink="http://www.w3.org/1999/xlink" x="0px" y="0px"
	 viewBox="0 0 25 24" style="enable-background:new 0 0 25 24;" xml:space="preserve">
<style type="text/css">
	.st0{fill:#2AC870;}
</style>
<g>
	<path class="st0" d="M12.7,20c-4.5,0-8.2-4-10.1-6.4c-0.4-0.5-0.6-1.1-0.6-1.6c0-0.6,0.2-1.2,0.6-1.7C4.4,8,8.2,4,12.7,4
		c4.5,0,8.2,4,10.1,6.4c0,0,0,0,0,0c0.8,1,0.8,2.3,0,3.3C20.9,16,17.2,20,12.7,20z M12.7,6c-3.8,0-7.2,3.9-8.5,5.6
		c-0.1,0.1-0.1,0.3-0.1,0.4c0,0.2,0.1,0.3,0.1,0.4c1.3,1.7,4.7,5.6,8.5,5.6c3.8,0,7.2-3.9,8.5-5.6c0.2-0.3,0.2-0.6,0-0.9
		C19.9,9.9,16.5,6,12.7,6z"/>
</g>
<g>
	<path class="st0" d="M12.7,16c-2.2,0-4-1.8-4-4s1.8-4,4-4c2.2,0,4,1.8,4,4S14.9,16,12.7,16z M12.7,10c-1.1,0-2,0.9-2,2s0.9,2,2,2
		c1.1,0,2-0.9,2-2S13.8,10,12.7,10z"/>
</g>
</svg>
