<svg width="24" height="25" viewBox="0 0 24 25" fill="none" xmlns="http://www.w3.org/2000/svg">
<path d="M3 6.5C3 6.30109 3.07902 6.11032 3.21967 5.96967C3.36032 5.82902 3.55109 5.75 3.75 5.75H20.25C20.4489 5.75 20.6397 5.82902 20.7803 5.96967C20.921 6.11032 21 6.30109 21 6.5C21 6.69891 20.921 6.88968 20.7803 7.03033C20.6397 7.17098 20.4489 7.25 20.25 7.25H3.75C3.55109 7.25 3.36032 7.17098 3.21967 7.03033C3.07902 6.88968 3 6.69891 3 6.5ZM3.75 13.25H20.25C20.4489 13.25 20.6397 13.171 20.7803 13.0303C20.921 12.8897 21 12.6989 21 12.5C21 12.3011 20.921 12.1103 20.7803 11.9697C20.6397 11.829 20.4489 11.75 20.25 11.75H3.75C3.55109 11.75 3.36032 11.829 3.21967 11.9697C3.07902 12.1103 3 12.3011 3 12.5C3 12.6989 3.07902 12.8897 3.21967 13.0303C3.36032 13.171 3.55109 13.25 3.75 13.25ZM13.5 17.75H3.75C3.55109 17.75 3.36032 17.829 3.21967 17.9697C3.07902 18.1103 3 18.3011 3 18.5C3 18.6989 3.07902 18.8897 3.21967 19.0303C3.36032 19.171 3.55109 19.25 3.75 19.25H13.5C13.6989 19.25 13.8897 19.171 14.0303 19.0303C14.171 18.8897 14.25 18.6989 14.25 18.5C14.25 18.3011 14.171 18.1103 14.0303 17.9697C13.8897 17.829 13.6989 17.75 13.5 17.75ZM21.75 17.75H20.25V16.25C20.25 16.0511 20.171 15.8603 20.0303 15.7197C19.8897 15.579 19.6989 15.5 19.5 15.5C19.3011 15.5 19.1103 15.579 18.9697 15.7197C18.829 15.8603 18.75 16.0511 18.75 16.25V17.75H17.25C17.0511 17.75 16.8603 17.829 16.7197 17.9697C16.579 18.1103 16.5 18.3011 16.5 18.5C16.5 18.6989 16.579 18.8897 16.7197 19.0303C16.8603 19.171 17.0511 19.25 17.25 19.25H18.75V20.75C18.75 20.9489 18.829 21.1397 18.9697 21.2803C19.1103 21.421 19.3011 21.5 19.5 21.5C19.6989 21.5 19.8897 21.421 20.0303 21.2803C20.171 21.1397 20.25 20.9489 20.25 20.75V19.25H21.75C21.9489 19.25 22.1397 19.171 22.2803 19.0303C22.421 18.8897 22.5 18.6989 22.5 18.5C22.5 18.3011 22.421 18.1103 22.2803 17.9697C22.1397 17.829 21.9489 17.75 21.75 17.75Z" fill="#2AC870"/>
</svg>
