<?xml version="1.0" encoding="utf-8"?>
<!-- Generator: Adobe Illustrator 26.0.0, SVG Export Plug-In . SVG Version: 6.00 Build 0)  -->
<svg version="1.1" id="Capa_1" xmlns="http://www.w3.org/2000/svg" xmlns:xlink="http://www.w3.org/1999/xlink" x="0px" y="0px"
	 viewBox="0 0 24 24" style="enable-background:new 0 0 24 24;" xml:space="preserve">
<style type="text/css">
	.st0{fill-rule:evenodd;clip-rule:evenodd;fill:#2AC870;}
</style>
<path class="st0" d="M19.7,1H4.3C2.5,1,1,2.5,1,4.3v4.4v11C1,21.5,2.5,23,4.3,23h15.4c1.8,0,3.3-1.5,3.3-3.3v-11V4.3
	C23,2.5,21.5,1,19.7,1z M7.6,20.8H4.3c-0.6,0-1.1-0.5-1.1-1.1V9.8h4.4V20.8z M20.8,19.7c0,0.6-0.5,1.1-1.1,1.1H9.8v-11h11V19.7z
	 M20.8,7.6H8.7H3.2V4.3c0-0.6,0.5-1.1,1.1-1.1h15.4c0.6,0,1.1,0.5,1.1,1.1V7.6z"/>
</svg>
