<svg width="24" height="25" viewBox="0 0 24 25" fill="none" xmlns="http://www.w3.org/2000/svg">
<path fill-rule="evenodd" clip-rule="evenodd" d="M11.986 2.8866C12.3667 2.8866 12.7143 3.1027 12.8828 3.44404L15.736 9.22538L22.1155 10.1499C22.4924 10.2046 22.8055 10.4685 22.9231 10.8307C23.0408 11.1929 22.9424 11.5905 22.6695 11.8562L18.0466 16.3561L19.1366 22.7105C19.201 23.0859 19.0466 23.4652 18.7384 23.6889C18.4302 23.9126 18.0217 23.9418 17.6848 23.7643L11.9925 20.7647L6.28639 23.7647C5.94947 23.9419 5.5412 23.9124 5.23324 23.6886C4.92529 23.4649 4.77107 23.0857 4.83543 22.7105L5.92546 16.3561L1.30252 11.8562C1.02962 11.5905 0.931297 11.1929 1.04892 10.8307C1.16655 10.4685 1.4797 10.2046 1.8566 10.1499L8.23607 9.22538L11.0893 3.44404C11.2577 3.1027 11.6054 2.8866 11.986 2.8866ZM11.986 6.14617L9.79677 10.5822C9.65105 10.8774 9.36932 11.082 9.04346 11.1293L4.15144 11.8382L7.69754 15.29C7.93357 15.5198 8.04132 15.851 7.98563 16.1757L7.14923 21.0515L11.5277 18.7495C11.8193 18.5961 12.1677 18.5963 12.4592 18.7499L16.8224 21.0491L15.9864 16.1757C15.9307 15.851 16.0385 15.5198 16.2745 15.29L19.8206 11.8382L14.9286 11.1293C14.6027 11.082 14.321 10.8774 14.1753 10.5822L11.986 6.14617Z" fill="#2AC870"/>
</svg>
