<?xml version="1.0" encoding="utf-8"?>
<!-- Generator: Adobe Illustrator 26.0.0, SVG Export Plug-In . SVG Version: 6.00 Build 0)  -->
<svg version="1.1" id="Capa_1" xmlns="http://www.w3.org/2000/svg" xmlns:xlink="http://www.w3.org/1999/xlink" x="0px" y="0px"
	 viewBox="0 0 22 20" style="enable-background:new 0 0 22 20;" xml:space="preserve">
<path d="M21.2,7.7c-0.1-0.2-0.2-0.4-0.4-0.5c-0.2-0.1-0.4-0.2-0.6-0.3l-5.4-1.2l-2.8-4.8c-0.1-0.2-0.3-0.3-0.5-0.5
	c-0.2-0.1-0.4-0.2-0.6-0.2c-0.2,0-0.4,0.1-0.6,0.2S10,0.7,9.9,0.9L7.1,5.7L1.7,6.8C1.5,6.9,1.3,7,1.1,7.1C1,7.3,0.8,7.5,0.8,7.7
	c-0.1,0.2-0.1,0.4,0,0.6c0,0.2,0.1,0.4,0.3,0.6L4.7,13l-0.6,5.5c0,0.2,0,0.4,0.1,0.6c0.1,0.2,0.2,0.4,0.4,0.5
	c0.2,0.1,0.4,0.2,0.6,0.2c0.2,0,0.4,0,0.6-0.1l5.1-2.2l5.1,2.2c0.2,0.1,0.4,0.1,0.6,0.1c0.2,0,0.4-0.1,0.6-0.2
	c0.2-0.1,0.3-0.3,0.4-0.5c0.1-0.2,0.1-0.4,0.1-0.6L17.3,13L21,8.9c0.1-0.2,0.2-0.4,0.3-0.6S21.3,7.9,21.2,7.7z"/>
</svg>
