<?xml version="1.0" encoding="utf-8"?>
<!-- Generator: Adobe Illustrator 26.0.0, SVG Export Plug-In . SVG Version: 6.00 Build 0)  -->
<svg version="1.1" id="Capa_1" xmlns="http://www.w3.org/2000/svg" xmlns:xlink="http://www.w3.org/1999/xlink" x="0px" y="0px"
	 viewBox="0 0 121 120" style="enable-background:new 0 0 121 120;" xml:space="preserve">
<path id="Vector" d="M85.6,46.7c0,0.2,0,0.4,0,0.6c-1.4-1.2-3.1-1.9-4.9-1.9c-0.8,0-1.5,0.1-2.3,0.4V24.9c0-1-0.4-1.9-1.1-2.6
	c-0.7-0.7-1.6-1.1-2.6-1.1h-41c-1,0-1.9,0.4-2.6,1.1c-0.7,0.7-1.1,1.6-1.1,2.6v21.8c0,2,1.6,3.6,3.6,3.6h40l0,0.1l0,0.1l-2.2,6.7
	l0,0.1c0,0.1-0.1,0.2-0.1,0.3H33.7c-2.9,0-5.6-1.1-7.7-3.2c-2-2-3.2-4.8-3.2-7.7V24.9c0-2.9,1.1-5.7,3.2-7.7c2-2,4.8-3.2,7.7-3.2
	h16.9v-3.6c0-0.9,0.3-1.7,0.9-2.4c0.6-0.7,1.4-1.1,2.2-1.2l0.5,0c0.9,0,1.7,0.3,2.4,0.9c0.7,0.6,1.1,1.4,1.2,2.2l0,0.5l0,3.6h16.9
	c2.9,0,5.6,1.1,7.7,3.2c2,2,3.2,4.8,3.2,7.7L85.6,46.7z M59.2,65l0.5-0.2H26.5c-2.9,0-5.6,1.1-7.7,3.2c-2,2-3.2,4.8-3.2,7.7v4.4
	c0,2.6,0.6,5.2,1.6,7.6c1.1,2.4,2.7,4.5,4.7,6.2c7.5,6.5,18.4,9.7,32.3,9.7c10,0,18.4-1.6,25.2-5c-1.3-0.2-2.5-0.8-3.5-1.7
	c-1-0.9-1.7-2-2.2-3.2l0-0.1l-0.1-0.5c-5.2,2-11.7,3.1-19.4,3.1c-12.4,0-21.5-2.7-27.6-7.9c-1.2-1-2.1-2.3-2.8-3.7
	c-0.7-1.4-1-3-1-4.5v-4.4c0-1,0.4-1.9,1.1-2.6c0.7-0.7,1.6-1.1,2.6-1.1h27.7v0c0-1.5,0.5-3.1,1.4-4.3C56.5,66.5,57.7,65.6,59.2,65
	L59.2,65z M49.4,34.6c0-0.8-0.1-1.6-0.4-2.4c-0.3-0.8-0.7-1.4-1.3-2c-0.6-0.6-1.2-1-2-1.4c-0.7-0.3-1.5-0.5-2.3-0.5
	c-0.8,0-1.6,0.2-2.3,0.5c-0.7,0.3-1.4,0.8-2,1.4c-0.6,0.6-1,1.3-1.3,2c-0.3,0.8-0.4,1.6-0.4,2.4c0,1.6,0.7,3.1,1.8,4.2
	c1.1,1.1,2.6,1.7,4.2,1.7c1.6,0,3.1-0.6,4.2-1.7C48.7,37.7,49.3,36.2,49.4,34.6z M65,28.5c0.8,0,1.6,0.1,2.4,0.4
	c0.8,0.3,1.4,0.7,2,1.3c0.6,0.6,1,1.2,1.4,2c0.3,0.7,0.5,1.5,0.5,2.4c0,0.8-0.2,1.6-0.5,2.4c-0.3,0.7-0.8,1.4-1.4,2
	c-0.6,0.6-1.3,1-2,1.3c-0.8,0.3-1.6,0.4-2.4,0.4c-1.6,0-3.1-0.7-4.2-1.8c-1.1-1.1-1.7-2.6-1.7-4.2c0-1.6,0.6-3.1,1.7-4.2
	C62,29.2,63.5,28.6,65,28.5z M74,81.4c-1.7-2.2-3.9-3.8-6.5-4.6l-6.6-2.2c-0.5-0.2-1-0.5-1.3-1c-0.3-0.4-0.5-1-0.5-1.5
	c0-0.5,0.2-1.1,0.5-1.5c0.3-0.4,0.8-0.8,1.3-1l6.6-2.2c2-0.7,3.8-1.8,5.2-3.3c1.5-1.5,2.6-3.3,3.3-5.3l0-0.2l2.2-6.7
	c0.2-0.5,0.5-1,1-1.3c0.4-0.3,1-0.5,1.5-0.5c0.5,0,1.1,0.2,1.5,0.5c0.4,0.3,0.8,0.8,1,1.3l2.2,6.7c0.7,2,1.8,3.9,3.3,5.4
	c1.5,1.5,3.3,2.6,5.4,3.3l6.7,2.2l0.1,0c0.5,0.2,1,0.5,1.3,1c0.3,0.4,0.5,1,0.5,1.5c0,0.5-0.2,1.1-0.5,1.5c-0.3,0.4-0.8,0.8-1.3,1
	l-6.7,2.2c-2,0.7-3.9,1.8-5.4,3.3c-1.5,1.5-2.6,3.4-3.3,5.4l-2.2,6.7c-0.2,0.5-0.5,1-1,1.3c-0.3,0.2-0.7,0.4-1.1,0.5
	c-0.4,0.1-0.8,0-1.2-0.1c-0.4-0.1-0.7-0.3-1-0.6c-0.3-0.3-0.5-0.6-0.6-1l-2.2-6.7C75.6,84,74.9,82.6,74,81.4z M111.1,99.8l-3.7-1.2
	c-1.1-0.4-2.1-1-3-1.8c-0.8-0.8-1.5-1.9-1.8-3l-1.2-3.7c-0.1-0.3-0.3-0.5-0.5-0.7c-0.2-0.2-0.5-0.3-0.8-0.3c-0.3,0-0.6,0.1-0.8,0.3
	c-0.2,0.2-0.4,0.4-0.5,0.7l-1.2,3.7c-0.4,1.1-1,2.1-1.8,3c-0.8,0.8-1.8,1.5-2.9,1.9L89,99.8c-0.3,0.1-0.5,0.3-0.7,0.5
	c-0.2,0.2-0.3,0.5-0.3,0.8c0,0.3,0.1,0.6,0.3,0.8c0.2,0.2,0.4,0.4,0.7,0.5l3.7,1.2c1.1,0.4,2.1,1,3,1.9c0.8,0.8,1.5,1.9,1.8,3
	l1.2,3.7c0.1,0.3,0.3,0.5,0.5,0.7c0.2,0.2,0.5,0.3,0.8,0.3c0.3,0,0.6-0.1,0.8-0.3c0.2-0.2,0.4-0.4,0.5-0.7l1.2-3.7
	c0.4-1.1,1-2.2,1.8-3c0.8-0.8,1.9-1.5,3-1.8l3.7-1.2c0.3-0.1,0.5-0.3,0.7-0.5c0.2-0.2,0.3-0.5,0.3-0.8c0-0.3-0.1-0.6-0.3-0.8
	C111.7,100.1,111.5,99.9,111.1,99.8L111.1,99.8z"/>
</svg>
