<svg width="16" height="16" viewBox="0 0 16 16" fill="none" xmlns="http://www.w3.org/2000/svg">
<path d="M1.9987 6.66663H1.33203C1.33203 6.84344 1.40227 7.01301 1.52729 7.13803C1.65232 7.26305 1.82189 7.33329 1.9987 7.33329V6.66663ZM1.9987 9.33329V8.66663C1.82189 8.66663 1.65232 8.73686 1.52729 8.86189C1.40227 8.98691 1.33203 9.15648 1.33203 9.33329H1.9987ZM13.9987 6.66663V7.33329C14.1755 7.33329 14.3451 7.26305 14.4701 7.13803C14.5951 7.01301 14.6654 6.84344 14.6654 6.66663H13.9987ZM13.9987 9.33329H14.6654C14.6654 9.15648 14.5951 8.98691 14.4701 8.86189C14.3451 8.73686 14.1755 8.66663 13.9987 8.66663V9.33329ZM3.33203 3.99996H6.66536V2.66663H3.33203V3.99996ZM6.66536 3.99996H12.6654V2.66663H6.66536V3.99996ZM12.6654 12H6.66536V13.3333H12.6654V12ZM6.66536 12H3.33203V13.3333H6.66536V12ZM5.9987 3.33329V12.6666H7.33203V3.33329H5.9987ZM2.47003 7.52863C2.59501 7.65364 2.66522 7.82318 2.66522 7.99996C2.66522 8.17673 2.59501 8.34627 2.47003 8.47129L3.4127 9.41396C3.78764 9.0389 3.99827 8.53029 3.99827 7.99996C3.99827 7.46963 3.78764 6.96101 3.4127 6.58596L2.47003 7.52863ZM13.5274 8.47129C13.4024 8.34627 13.3322 8.17673 13.3322 7.99996C13.3322 7.82318 13.4024 7.65364 13.5274 7.52863L12.5847 6.58596C12.2098 6.96101 11.9991 7.46963 11.9991 7.99996C11.9991 8.53029 12.2098 9.0389 12.5847 9.41396L13.5274 8.47129ZM1.9987 7.33329C2.17003 7.33329 2.34003 7.39796 2.47003 7.52863L3.4127 6.58596C3.22715 6.40005 3.00674 6.25259 2.7641 6.15203C2.52146 6.05148 2.26135 5.9998 1.9987 5.99996V7.33329ZM2.66536 6.66663V4.66663H1.33203V6.66663H2.66536ZM2.66536 11.3333V9.33329H1.33203V11.3333H2.66536ZM2.47003 8.47129C2.40827 8.53338 2.33482 8.58261 2.25392 8.61614C2.17302 8.64967 2.08627 8.66683 1.9987 8.66663V9.99996C2.50936 9.99996 3.0227 9.80463 3.4127 9.41396L2.47003 8.47129ZM13.5274 7.52863C13.5891 7.46654 13.6626 7.41731 13.7435 7.38378C13.8244 7.35025 13.9111 7.33309 13.9987 7.33329V5.99996C13.488 5.99996 12.9747 6.19529 12.5847 6.58596L13.5274 7.52863ZM13.332 4.66663V6.66663H14.6654V4.66663H13.332ZM13.332 9.33329V11.3333H14.6654V9.33329H13.332ZM13.9987 8.66663C13.9111 8.66683 13.8244 8.64967 13.7435 8.61614C13.6626 8.58261 13.5891 8.53338 13.5274 8.47129L12.5847 9.41396C12.7702 9.59987 12.9907 9.74733 13.2333 9.84788C13.4759 9.94844 13.736 10.0001 13.9987 9.99996V8.66663ZM3.33203 12C3.15522 12 2.98565 11.9297 2.86063 11.8047C2.7356 11.6797 2.66536 11.5101 2.66536 11.3333H1.33203C1.33203 11.8637 1.54274 12.3724 1.91782 12.7475C2.29289 13.1226 2.8016 13.3333 3.33203 13.3333V12ZM12.6654 13.3333C13.1958 13.3333 13.7045 13.1226 14.0796 12.7475C14.4547 12.3724 14.6654 11.8637 14.6654 11.3333H13.332C13.332 11.5101 13.2618 11.6797 13.1368 11.8047C13.0117 11.9297 12.8422 12 12.6654 12V13.3333ZM12.6654 3.99996C12.8422 3.99996 13.0117 4.0702 13.1368 4.19522C13.2618 4.32025 13.332 4.48981 13.332 4.66663H14.6654C14.6654 4.13619 14.4547 3.62749 14.0796 3.25241C13.7045 2.87734 13.1958 2.66663 12.6654 2.66663V3.99996ZM3.33203 2.66663C2.8016 2.66663 2.29289 2.87734 1.91782 3.25241C1.54274 3.62749 1.33203 4.13619 1.33203 4.66663H2.66536C2.66536 4.48981 2.7356 4.32025 2.86063 4.19522C2.98565 4.0702 3.15522 3.99996 3.33203 3.99996V2.66663Z" fill="#EDF2F5"/>
</svg>
