<svg width="32" height="32" viewBox="0 0 32 32" fill="none" xmlns="http://www.w3.org/2000/svg">
<path fill-rule="evenodd" clip-rule="evenodd" d="M27.8728 18.7926C26.1381 17.0578 23.7853 16.0833 21.332 16.0833C18.8788 16.0833 16.526 17.0578 14.7913 18.7926C13.0566 20.5273 12.082 22.88 12.082 25.3333C12.082 26.0237 12.6417 26.5833 13.332 26.5833C14.0224 26.5833 14.582 26.0237 14.582 25.3333C14.582 23.5431 15.2932 21.8262 16.5591 20.5603C17.8249 19.2945 19.5418 18.5833 21.332 18.5833C23.1222 18.5833 24.8391 19.2945 26.105 20.5603C27.3709 21.8262 28.082 23.5431 28.082 25.3333C28.082 26.0237 28.6417 26.5833 29.332 26.5833C30.0224 26.5833 30.582 26.0237 30.582 25.3333C30.582 22.88 29.6075 20.5273 27.8728 18.7926Z" fill="#2AC870"/>
<path fill-rule="evenodd" clip-rule="evenodd" d="M21.332 7.91663C23.5872 7.91663 25.4154 9.7448 25.4154 12C25.4154 14.2551 23.5872 16.0833 21.332 16.0833C19.0769 16.0833 17.2487 14.2551 17.2487 12C17.2487 9.7448 19.0769 7.91663 21.332 7.91663ZM27.9154 12C27.9154 8.36408 24.9679 5.41663 21.332 5.41663C17.6962 5.41663 14.7487 8.36408 14.7487 12C14.7487 15.6358 17.6962 18.5833 21.332 18.5833C24.9679 18.5833 27.9154 15.6358 27.9154 12Z" fill="#2AC870"/>
<path fill-rule="evenodd" clip-rule="evenodd" d="M11.9154 6.66663C11.9154 5.97627 11.3557 5.41663 10.6654 5.41663C8.91936 5.41663 7.24486 6.11022 6.01025 7.34484C4.77563 8.57945 4.08203 10.254 4.08203 12C4.08203 13.746 4.77563 15.4205 6.01025 16.6551C6.16116 16.806 6.31865 16.9488 6.48204 17.0833C5.6188 17.521 4.8218 18.0954 4.12463 18.7926C2.38992 20.5273 1.41537 22.88 1.41537 25.3333C1.41537 26.0236 1.97501 26.5833 2.66537 26.5833C3.35572 26.5833 3.91537 26.0236 3.91537 25.3333C3.91537 23.5431 4.62652 21.8262 5.89239 20.5603C7.15826 19.2945 8.87515 18.5833 10.6654 18.5833C11.3557 18.5833 11.9154 18.0236 11.9154 17.3333C11.9154 16.6429 11.3557 16.0833 10.6654 16.0833C9.5824 16.0833 8.54379 15.6531 7.77801 14.8873C7.01224 14.1215 6.58203 13.0829 6.58203 12C6.58203 10.917 7.01224 9.87838 7.77801 9.11261C8.54379 8.34683 9.5824 7.91663 10.6654 7.91663C11.3557 7.91663 11.9154 7.35698 11.9154 6.66663Z" fill="#2AC870"/>
</svg>
