<svg width="50" height="50" viewBox="0 0 50 50" fill="none" xmlns="http://www.w3.org/2000/svg">
<path d="M45.1016 41.4062C42.127 36.2636 37.543 32.5761 32.1934 30.8281C34.8396 29.2528 36.8955 26.8524 38.0454 23.9956C39.1953 21.1388 39.3757 17.9835 38.5588 15.0143C37.7419 12.0451 35.9729 9.4261 33.5235 7.55956C31.074 5.69302 28.0796 4.68213 25.0001 4.68213C21.9205 4.68213 18.9261 5.69302 16.4767 7.55956C14.0273 9.4261 12.2583 12.0451 11.4414 15.0143C10.6245 17.9835 10.8048 21.1388 11.9547 23.9956C13.1047 26.8524 15.1606 29.2528 17.8067 30.8281C12.4571 32.5742 7.87312 36.2617 4.89851 41.4062C4.78942 41.5841 4.71707 41.782 4.68571 41.9883C4.65436 42.1945 4.66463 42.405 4.71594 42.6073C4.76724 42.8095 4.85854 42.9994 4.98443 43.1658C5.11032 43.3322 5.26827 43.4717 5.44895 43.5761C5.62963 43.6804 5.82938 43.7476 6.03641 43.7735C6.24345 43.7994 6.45358 43.7836 6.65441 43.727C6.85524 43.6703 7.04269 43.5741 7.20571 43.4439C7.36873 43.3136 7.50402 43.1521 7.60359 42.9687C11.2833 36.6093 17.7872 32.8124 25.0001 32.8124C32.213 32.8124 38.7169 36.6093 42.3966 42.9687C42.4961 43.1521 42.6314 43.3136 42.7944 43.4439C42.9575 43.5741 43.1449 43.6703 43.3457 43.727C43.5466 43.7836 43.7567 43.7994 43.9637 43.7735C44.1708 43.7476 44.3705 43.6804 44.5512 43.5761C44.7319 43.4717 44.8898 43.3322 45.0157 43.1658C45.1416 42.9994 45.2329 42.8095 45.2842 42.6073C45.3355 42.405 45.3458 42.1945 45.3144 41.9883C45.2831 41.782 45.2107 41.5841 45.1016 41.4062ZM14.0626 18.7499C14.0626 16.5867 14.704 14.4721 15.9059 12.6734C17.1077 10.8747 18.8159 9.47284 20.8145 8.64501C22.813 7.81718 25.0122 7.60058 27.1339 8.0226C29.2555 8.44463 31.2044 9.48632 32.7341 11.016C34.2637 12.5456 35.3054 14.4945 35.7274 16.6161C36.1494 18.7378 35.9328 20.937 35.105 22.9355C34.2772 24.9341 32.8753 26.6423 31.0766 27.8441C29.278 29.046 27.1633 29.6874 25.0001 29.6874C22.1002 29.6843 19.32 28.531 17.2695 26.4805C15.219 24.43 14.0657 21.6498 14.0626 18.7499Z" fill="#2AC870"/>
</svg>
