<svg width="24" height="25" viewBox="0 0 24 25" fill="none" xmlns="http://www.w3.org/2000/svg">
<path fill-rule="evenodd" clip-rule="evenodd" d="M4.11612 5.00271C4.60427 4.51456 5.39573 4.51456 5.88388 5.00271L12 11.1188L18.1161 5.00271C18.6043 4.51456 19.3957 4.51456 19.8839 5.00271C20.372 5.49087 20.372 6.28232 19.8839 6.77048L13.7678 12.8866L19.8839 19.0027C20.372 19.4909 20.372 20.2823 19.8839 20.7705C19.3957 21.2586 18.6043 21.2586 18.1161 20.7705L12 14.6544L5.88388 20.7705C5.39573 21.2586 4.60427 21.2586 4.11612 20.7705C3.62796 20.2823 3.62796 19.4909 4.11612 19.0027L10.2322 12.8866L4.11612 6.77048C3.62796 6.28232 3.62796 5.49087 4.11612 5.00271Z" fill="#2AC870"/>
</svg>
